<?xml version="1.0" encoding="utf-8"?>
<!-- Generator: Adobe Illustrator 19.1.0, SVG Export Plug-In . SVG Version: 6.00 Build 0)  -->
<svg version="1.1" id="Layer_1" xmlns="http://www.w3.org/2000/svg" xmlns:xlink="http://www.w3.org/1999/xlink" x="0px" y="0px"
	 viewBox="0 0 792 612" style="enable-background:new 0 0 792 612;" xml:space="preserve">
<style type="text/css">
	.st0{opacity:0.61;}
	.st1{opacity:0.25;}
	.st2{fill:url(#path2286_1_);}
</style>
<g class="st0">
	<title>Layer 1</title>
	<g id="layer1" class="st1">
		<linearGradient id="path2286_1_" gradientUnits="userSpaceOnUse" x1="405.8208" y1="432.6182" x2="405.8208" y2="62.755">
			<stop  offset="0" style="stop-color:#FFFFFF"/>
			<stop  offset="0.142" style="stop-color:#FBFBFB;stop-opacity:0.8722"/>
			<stop  offset="0.2698" style="stop-color:#F0F0F0;stop-opacity:0.7572"/>
			<stop  offset="0.3921" style="stop-color:#DEDEDE;stop-opacity:0.6471"/>
			<stop  offset="0.5111" style="stop-color:#C4C4C4;stop-opacity:0.54"/>
			<stop  offset="0.6278" style="stop-color:#A3A3A3;stop-opacity:0.435"/>
			<stop  offset="0.7425" style="stop-color:#7A7A7A;stop-opacity:0.3317"/>
			<stop  offset="0.8559" style="stop-color:#4A4A4A;stop-opacity:0.2297"/>
			<stop  offset="0.9653" style="stop-color:#131313;stop-opacity:0.1312"/>
			<stop  offset="1" style="stop-color:#000000;stop-opacity:0.1"/>
		</linearGradient>
		<path id="path2286" class="st2" d="M231.3,58.4c-0.5,0-0.8,0.1-0.9,0.3c-0.2,0.4-1.1,0.4-2,0.2c-0.9-0.2-2.3-0.1-3.1,0.2
			c-0.8,0.3-1.9,0.6-2.4,0.5c-0.9-0.1-2.1,1.8-2.3,3.6c0,0.5-1.6,0.7-3.6,0.6c-2.6-0.2-3.4,0-3.3,0.8c0.1,0.7-0.7,1.1-2.4,1.1
			c-1.5,0-2.9,0.3-3.2,0.6c-0.3,0.3-1.9,0.6-3.5,0.7l-2.9,0.1l2.9,0.5c1.6,0.3,2.7,0.8,2.5,1.1c-0.2,0.3,0.4,1.2,1.5,1.9
			c1.4,1,2.1,1.1,3,0.4c0.8-0.6,1.6-0.7,2.6-0.2c3.8,2,7.9,1.9,12-0.3c2.8-1.5,4.3-1.9,4.9-1.3c1.3,1.3-0.8,2.9-6.4,4.7
			c-3.6,1.2-5.4,1.4-6.7,0.8c-1.9-0.9-4.3-0.3-4.3,0.9c0,1.3,5.8,4.3,7.4,3.8c1.9-0.6,2.7,0.8,1.2,2c-1.7,1.4-9.8,0.1-9.8-1.6
			c0-0.7-0.6-1.7-1.4-2.3c-0.8-0.6-1.2-1.6-0.9-2.3c0.3-0.7,0.2-1.2-0.2-1.1c-0.8,0.2-3.5-0.7-5.2-1.8c-2.4-1.5-3.3-1.8-4.7-1.2
			c-1.2,0.5-1.2,0.7-0.2,1.3c1.2,0.8,1,0.9-1.9,1.1c-0.6,0-1.5,0.6-2,1.3c-1.2,1.5,0.8,3.2,3.8,3.3c1.1,0,2.6,0.4,3.3,0.8
			c1,0.6,0.6,0.9-1.5,1.3c-2.2,0.4-2.5,0.7-1.4,1.3c0.7,0.4,1.1,1.1,0.9,1.5c-0.3,0.4,0.9,0.8,2.7,0.8c2.2,0,3.7-0.5,4.7-1.6
			c1.1-1.3,1.7-1.4,2.6-0.7c0.6,0.5,2.2,1.5,3.6,2.3c1.4,0.7,2.5,1.7,2.6,2.1c0.2,1.4-2.5,1.4-3.9,0.1c-0.7-0.7-0.9-1.3-0.5-1.3
			s1.1,0.4,1.3,0.8c0.3,0.5,1.1,0.8,1.9,0.8c1.1,0,0.9-0.3-0.5-1.3c-1.6-1.1-2.3-1.1-4-0.3c-1.9,0.9-2,1.1-0.7,1.8
			c1.5,0.8,1.2,2.3-0.5,2.3c-0.6,0-0.5-0.3,0.3-0.8c0.7-0.4,0.9-0.8,0.4-0.8c-1.3,0-3.3,1.5-2.7,2.1c0.3,0.3,3.7,0.7,7.7,0.8
			c3.9,0.2,7.3,0.5,7.6,0.7c0.6,0.6,0.9,0.5,4-0.6c2.8-1,3.8-2.4,1.3-1.8c-2,0.5-6.1-1.2-5.4-2.3c0.3-0.5,1.4-0.7,2.5-0.4
			c1.2,0.3,3.1-0.1,4.6-0.9c1.4-0.8,3.1-1.6,3.8-1.9c0.6-0.3,1.3-1,1.5-1.6c0.3-0.8-0.2-0.9-1.7-0.6c-1.1,0.3-2.3,0.3-2.6,0
			c-0.9-0.9,1.2-2.7,3.3-2.7c1.1,0,1.8-0.3,1.5-0.8c-0.8-1.4,0.9-1.7,3.6-0.6c2.2,0.8,2.7,0.8,3.3-0.2c0.4-0.6,3.6-2.6,7.1-4.3
			c3.5-1.7,6-3.1,5.4-3.1c-0.5,0-1.6-0.3-2.5-0.5c-1.1-0.4-1.2-0.3-0.4,0.3c0.8,0.6,0.5,1-1.4,1.7c-2.6,0.9-4.1,0.1-2.4-1.3
			c0.6-0.5,2.7-1.4,4.7-2c4.9-1.6,8.2-3.2,8.2-3.8c0-0.3-1-1.1-2.3-1.8c-1.6-0.9-2.9-1.1-4.7-0.6c-2.7,0.8-4.9,0.3-4.1-0.8
			c0.7-1.1-3.5-1.8-8.3-1.3c-2.3,0.2-5.9,0.1-8-0.3c-1-0.2-2-0.3-2.8-0.3C231.6,58.4,231.4,58.4,231.3,58.4z M309.1,58.4
			c-2.2,0-3.8,0.4-3.4,1c0.9,1.5-1.9,1.8-4.5,0.4c-2-1-3.1-1.2-4.5-0.5c-1.3,0.6-2.1,0.6-2.7,0c-1.1-1.1-3.4-0.2-3.4,1.4
			c0,1.6,1.3,1.6,2-0.1c0.4-1.1,0.8-1.1,2.5,0.6c1.3,1.3,1.7,2.2,1.2,2.9c-0.7,0.8-4.8,0.9-8.9,0.3c-3.1-0.5-5.7,0.1-5.2,1.2
			c0.6,1.7-0.9,2.3-2.1,0.9c-1.2-1.5-2.5-1.6-2.3-0.2c0.1,0.7-1.2,0.9-4.7,0.8c-4.7-0.2-10.1,1.3-8.9,2.6c0.8,0.8-1.5,3.1-2.7,2.7
			c-0.6-0.2-1.3-0.1-1.5,0.3c-0.3,0.4-0.9,0.6-1.5,0.4c-1.3-0.5-7.6,2.5-6.5,3.2c0.4,0.3,2,0.2,3.4-0.2c3.4-1,3.9,0.1,1.7,3.2
			c-1.3,1.7-2.5,2.5-4.1,2.5c-1.2,0-2.5,0.4-2.8,0.8c-0.3,0.5-0.9,0.6-1.3,0.3c-1-0.6-6.5,1.2-6.5,2.1c0,0.8,1,0.9,6.9,1.1
			c1.8,0,3.4,0.5,3.6,1.1c0.4,1.1-0.3,1.4-5.1,2.3c-2.9,0.5-3.1,0.6-1.2,1.1c1.1,0.3,1.9,0.8,1.6,1.2c-0.6,1,2.6,2,4.5,1.3
			c0.9-0.3,4.6-0.7,8.1-0.7c3.6-0.1,6.8-0.3,7.1-0.6c0.3-0.2,1.1,0.6,1.8,1.9c0.6,1.3,2,3,2.9,3.8c0.9,0.9,1.7,2,1.7,2.5
			c0,0.5,0.7,1.6,1.6,2.4c1.1,1,1.4,2.1,1.2,3.8c-0.4,2.8,0.9,3.3,1.6,0.6c0.4-1.4,0.7-1.6,1.6-0.8c2.8,2.3,2.1,5.2-1.5,6.1
			c-1.1,0.3-0.8,0.4,0.9,0.5c1.4,0.1,3.1,0.8,3.9,1.6c1.3,1.4,1.3,1.6-0.3,3c-1.5,1.4-1.6,1.5-0.2,2.5c1.3,1,1.2,1.1-0.8,1.9
			c-1.2,0.5-2.3,1.3-2.3,1.8c0,0.7,0.3,0.7,1.2-0.1c1.9-1.6,3.2-0.1,1.6,1.7c-0.8,0.9-1.1,1.6-0.7,1.6s0.1,0.5-0.7,1.2
			c-1,0.7-1.2,1.3-0.6,1.7c0.5,0.3,0.6,1,0.3,1.5c-0.4,0.6-0.1,0.6,0.7-0.1c1.5-1.2,2.5-0.2,1.5,1.4c-0.4,0.7,0.2,2.3,1.6,4.5
			c3.2,4.7,5.4,6.6,8,6.6c1.2,0,2.2,0.5,2.3,1c0.1,0.6,0.1,1.2,0.2,1.5c0.2,1,5-2.5,5.1-3.7c0-0.7,0-2-0.1-3c-0.1-1,0.2-2,0.7-2.3
			c0.5-0.3,0.9-1.2,0.9-2c0-1.8,7.2-8.4,8.3-7.7c0.4,0.3,1.8,0,3.1-0.5c2.3-1,3.5-2.5,3.6-4.9c0-0.7,0.5-1.1,1.1-1
			c0.6,0.1,1.8-0.5,2.6-1.4c1.3-1.3,2.7-1.6,6.8-1.5c3.2,0.1,6.1-0.4,7.6-1.2c1.3-0.7,3.7-1.5,5.3-1.9l2.9-0.6l-2.9-0.6
			c-1.6-0.3-3.6-0.4-4.6-0.2c-2.1,0.5-3.4-1.1-1.6-1.9c0.7-0.3,1.2-1.1,1.1-1.8c-0.2-0.9,0.5-1.4,2.1-1.6c1.8-0.2,2.4,0.1,2.7,1.4
			c0.5,2.1,2.7,2.3,2.7,0.2c0-1.9-4.4-4.5-6.5-3.9c-2.2,0.7-3.6-0.2-2.4-1.7c0.7-0.8,0.5-1.3-0.8-2c-2.3-1.3-1.2-2.7,1.6-2.1
			c1.9,0.4,2.3,0.2,2.2-0.9c-0.2-2.1,2.7-1.9,5.5,0.3c1.3,1,2.9,1.8,3.7,1.8c1,0,0.9-0.3-0.5-1.3c-2.3-1.6-1.6-2.8,1.7-2.8
			c2.4,0,2.5-0.1,1-1.2c-0.9-0.7-1.2-1.3-0.8-1.3c0.5-0.1-0.3-0.4-1.6-0.6c-3.1-0.7-3.2-2-0.1-2.7l2.5-0.5l-2.6-0.1
			c-1.4-0.1-2.8-0.4-3.1-0.9c-0.8-1.3,2.5-2.5,5.3-2c2,0.4,2.5,0.3,2-0.5c-0.3-0.6-0.8-0.8-1-0.6c-0.8,0.8-3.6-1.3-3.2-2.4
			c0.2-0.6,0-1.5-0.5-1.9c-0.6-0.6-0.3-1.1,1.3-1.7c1.2-0.5,2.2-1.4,2.2-2c0-0.7,0.6-1.6,1.4-2.1c1.2-0.8,1.1-0.9-0.7-0.5
			c-2.5,0.5-3.5-0.2-2.3-1.7c0.5-0.6,2.5-1.1,4.5-1.1c2.4,0,3.5-0.3,3.4-1c-0.1-0.6,0.6-1.1,1.7-1.3c1-0.2,2.8-0.8,4-1.4l2.1-1.1
			l-3.3-0.6c-1.8-0.3-3.9-0.2-4.8,0.2c-2.1,1.1-5.4,1.5-6.6,0.7c-0.6-0.4-2.1-0.1-3.5,0.6c-2.4,1.2-3.9,0.6-2.8-1.1
			c0.4-0.6-1.4-0.8-5.5-0.6c-4.4,0.2-7.4,0.9-11.1,2.6c-2.9,1.3-5.7,2.1-6.5,1.8c-2-0.8-0.8-1.7,6.4-4.5c4.1-1.6,7.7-2.5,10.4-2.5
			c2.2,0,5.3-0.6,6.8-1.3l2.8-1.3l-4.6,0.5c-4.8,0.5-6.8-0.4-4.2-2.1c1.6-1-6.2-0.6-14.9,0.8c-2.7,0.4-5.2,0.6-5.6,0.3
			c-1.2-0.8,0.8-2.1,4.1-2.8c2.8-0.6,2.7-0.6-1.8-0.7c-2.7,0-5.6-0.1-6.5-0.2C310.6,58.5,309.8,58.4,309.1,58.4z M286.5,59.7
			c-0.9,0-1.6,0.7-1.2,1.5c0.3,0.4,0.8,0.8,1.2,0.8c1.1,0,1.8-1.5,0.8-2C287.1,59.7,286.8,59.7,286.5,59.7z M282.7,60.6
			c-0.1,0-0.3,0.1-0.4,0.1c-0.4,0.3-0.5,0.8-0.3,1.3c0.3,0.4,0.8,0.5,1.3,0.3c0.4-0.3,0.5-0.8,0.3-1.3
			C283.4,60.7,283,60.6,282.7,60.6z M351.9,65.4c-0.9,0-1.6,0.7-1.2,1.5c0.3,0.4,0.8,0.8,1.2,0.8c1.1,0,1.8-1.5,0.8-2
			C352.5,65.4,352.2,65.4,351.9,65.4z M505.3,66.3c-0.4,0-0.6,0.6-0.4,1.7c0.1,0.4-0.4,0.5-1,0.3c-1.6-0.6-2.3,0.3-1.2,1.6
			c0.9,1.1,2.5,1.2,2.1,0.2c0.1-0.1,0.2-0.1,0.2-0.3c0,0,0-0.1-0.1-0.2c0.1-0.4,0.4-0.9,0.8-1.3c0.7-0.9,0.8-1.5,0.2-1.8
			C505.6,66.3,505.5,66.3,505.3,66.3z M513.1,67.1c-0.9,0-1.6,0.7-1.2,1.5c0.3,0.4,0.8,0.8,1.2,0.8c1.1,0,1.8-1.5,0.8-2
			C513.7,67.1,513.4,67,513.1,67.1z M267.9,67.8c1.1,0,2.3,0.8,1.8,1.5c-0.6,1-2.6,1.1-3.2,0.1c-0.3-0.4-0.1-1,0.4-1.3
			C267.2,67.9,267.6,67.8,267.9,67.8z M489.7,68c-0.1,0-0.3,0.1-0.4,0.1c-0.4,0.3-0.5,0.8-0.3,1.3c0.3,0.4,0.8,0.5,1.3,0.3
			c0.4-0.3,0.5-0.8,0.3-1.3C490.4,68.1,490.1,67.9,489.7,68z M568.8,68.7c-0.9,0-1.6,0.7-1.2,1.5c0.3,0.4,0.8,0.8,1.2,0.8
			c1.1,0,1.8-1.5,0.8-2C569.4,68.7,569.1,68.7,568.8,68.7z M499.2,68.8c-0.6,0-1.4,0.3-2.1,0.7c-0.5,0.3-1.2,0.2-1.5-0.2
			c-0.3-0.5-0.9-0.6-1.3-0.4c-0.4,0.3-0.5,0.8-0.3,1.3c0.3,0.4,0.8,0.6,1.2,0.3c0.4-0.2,0.9-0.1,1.2,0.3c0.3,0.4,0.9,0.7,1.5,0.6
			c1.7-0.3,3.1-1.4,2.7-2.1C500.3,68.9,499.8,68.7,499.2,68.8z M507.7,68.8c-0.1,0-0.3,0.1-0.4,0.1c-0.4,0.3-0.5,0.8-0.3,1.3
			c0.3,0.4,0.8,0.5,1.3,0.3c0.4-0.3,0.5-0.8,0.3-1.3C508.4,68.9,508.1,68.8,507.7,68.8z M230.3,69.4c-0.6,0.1-1.7,0.7-4.1,2
			c-3.8,2.1-2.5,2.3,2.6,0.3c1.1-0.4,2.1-1.2,2.1-1.6c0-0.4,0-0.7-0.3-0.7C230.5,69.4,230.4,69.4,230.3,69.4z M250.9,69.4
			c-0.5,0-1.1,0.2-1.5,0.6c-0.6,0.6-0.3,0.7,1.1,0.4c1.1-0.3,1.5-0.7,0.8-0.9C251.3,69.4,251.1,69.4,250.9,69.4z M577.5,69.9
			c-0.7,0-1.4,0.4-2.8,1.3c-2.6,1.5-2.7,1.8-1.5,2.7c1.6,1.2,7,0.6,8-0.8c0.3-0.5-0.4-1.5-1.5-2.3C578.7,70.2,578.2,69.9,577.5,69.9
			z M516.4,70.4c-0.3,0-0.7,0.1-1,0.3c-0.6,0.4-1.3,0.7-1.6,0.7c-0.3,0-0.6,0.3-0.6,0.6c0,0.3,0,0.9,0,1.2c0,0.3,0.4,0.2,0.9-0.3
			c0.5-0.5,1.4-0.7,2-0.5c1.3,0.5,2.4-1.1,1.2-1.8C517.1,70.4,516.7,70.3,516.4,70.4z M482.9,70.6c-1.5,0-3.8,0.8-4.4,1.9
			c-0.4,0.7,2.3,2.9,3.8,2.9c0.3,0,0.8,0.3,1.2,0.6c0.8,0.8,2.1-0.1,1.5-1.1c-0.3-0.4-0.8-0.6-1.2-0.4c-0.4,0.2-0.9-0.1-1.1-0.7
			c-0.2-0.6,0.1-1.4,0.9-1.6c0.9-0.3,1.1-0.8,0.5-1.3C483.8,70.7,483.4,70.6,482.9,70.6z M488.1,70.6c-0.4,0-0.9,0.2-1.5,0.7
			c-1.4,1-1.4,1.3-0.4,2.6c0.7,0.8,1.1,1.7,1,1.9c-0.1,0.3,0.1,0.5,0.5,0.5c0.4,0,1,0.3,1.4,0.6c0.8,0.8,2.1-0.1,1.5-1.1
			c-0.3-0.4-0.8-0.6-1.2-0.3c-0.4,0.2-0.9,0.1-1.2-0.3c-0.3-0.4,0.3-0.9,1.4-1.2c2.5-0.7,2.7-0.7,2.7,0.2c0,1.4,1.2,1.9,2.4,1
			c0.8-0.7,1.3-0.7,1.7-0.1c0.4,0.6,1,0.6,2.2-0.1c1.2-0.6,1.4-1.1,0.8-1.8c-0.6-0.6-1.2-0.6-2,0.1c-0.9,0.8-1.3,0.7-1.7-0.4
			c-0.3-0.8-0.8-1.1-1-0.8s-1,0.1-1.5-0.3c-0.7-0.6-1.2-0.6-1.6,0.1c-0.4,0.6-1,0.5-2-0.4C488.9,70.8,488.5,70.6,488.1,70.6z
			 M510.6,70.6c-1.2,0-4,2.2-3.6,2.9c0.2,0.4,0.7,0.7,1.1,0.7c1,0,3.4-2.9,2.9-3.5C511,70.6,510.8,70.6,510.6,70.6z M501.2,71.3
			c-0.1,0-0.3,0.1-0.4,0.1c-0.4,0.3-0.5,0.9-0.2,1.4c0.3,0.5,0.7,1.2,0.7,1.6c0.1,0.3,0.1,0.9,0.2,1.2c0.1,0.3,0.8-0.1,1.7-0.9
			c1.5-1.4,1.5-3.4,0-2.5c-0.4,0.2-0.9,0.1-1.2-0.4C501.9,71.4,501.5,71.2,501.2,71.3z M433.1,73.8c-0.8,0-0.9,0.2-0.9,0.8
			c0,0.6-0.6,1.6-1.4,2.2c-0.8,0.6-1.1,0.7-0.8,0.2c0.7-1.2-0.6-2.1-3.8-2.4c-2.1-0.2-2.3-0.1-1.4,1c0.9,1,0.8,1.5-0.4,2.7
			c-1.3,1.3-1.5,1.3-2.4,0.1c-1.5-2.1-3.3-2.2-4.7-0.5c-0.9,1.1-1.8,1.4-2.9,1c-1.5-0.6-1.5-0.6,0-1.8c1.7-1.3,1.2-1.4-2.7-0.7
			c-1.4,0.3-2.6,0.9-2.6,1.3s0.4,0.5,0.8,0.3c1.7-1,2.6,0.5,1.2,2.1c-0.8,0.8-1.8,1.3-2.3,1c-0.5-0.3-0.4,0.1,0.2,0.8
			c1.2,1.5,2.9,1.1,2-0.5c-0.3-0.5,0.2-0.3,1.2,0.6c1.6,1.4,1.9,1.4,3.2,0.3c1.9-1.7,4.4-2.1,4.9-0.8c0.2,0.6-0.6,1.4-1.7,1.8
			c-2.4,0.9-2.8,1.8-0.7,1.5c2.2-0.4,1.7,2.1-0.6,2.7c-1.1,0.3-1.4,0.6-0.7,0.7c0.7,0,1.8,0.6,2.4,1.3c1.5,1.8,2.1,1.5,3.3-1.3
			c0.6-1.4,1.7-3.4,2.6-4.5c1.5-1.8,1.7-1.9,3.5-0.8c1,0.7,2.1,0.9,2.5,0.6c0.4-0.3,0.2,0.2-0.3,1.3c-0.9,1.8-0.8,1.8,1.6,1.7
			c1.4-0.1,2.7-0.4,2.9-0.7c0.3-0.5-3.6-2.7-6.4-3.6c-0.8-0.3-1.3-0.8-1-1.2c0.2-0.4-0.4-0.9-1.4-1.2c-1.4-0.4-1.6-0.7-0.8-1.5
			c0.8-0.8,2-0.8,5.5,0c4.3,1,4.7,0.9,7.4-1l2.9-2l-2.7-0.5C435.6,74.1,433.9,73.8,433.1,73.8z M452,74.3c-0.4,0-0.7,0.1-1,0.3
			c-0.5,0.3-0.7,0.9-0.4,1.3c0.6,1,2.6,1,3.2-0.1C454.3,75.1,453.2,74.3,452,74.3z M461.1,74.5c-0.1,0-0.3,0.1-0.4,0.1
			c-0.4,0.3-0.5,0.8-0.3,1.3c0.3,0.4,0.8,0.5,1.3,0.3c0.4-0.3,0.5-0.8,0.3-1.3C461.8,74.6,461.4,74.5,461.1,74.5z M506.1,74.5
			c-0.1,0-0.3,0.1-0.4,0.1c-0.4,0.3-0.5,0.8-0.3,1.3c0.3,0.4,0.8,0.5,1.3,0.3c0.4-0.3,0.5-0.8,0.3-1.3
			C506.8,74.6,506.4,74.5,506.1,74.5z M572.4,74.7c-0.4,0-0.9,0.1-1.4,0.2c-1.2,0.3-1.3,0.5-0.4,1.1c1.4,0.9,2.9,0.9,3.5,0
			C574.5,75.2,573.7,74.7,572.4,74.7z M578.5,75.1c-1.2,0.1-2.6,0.6-4.3,1.5l-2.8,1.5l4.6,1c2.5,0.6,5.5,1.5,6.6,2.1
			c2.5,1.4,2.9,1.1,3.1-2c0.3-3.8-0.6-4.6-2.4-2.4l-1.5,1.9l-0.5-1.8C581.1,75.6,580,75,578.5,75.1z M186.7,75.4
			c-0.1,0-0.1,0-0.2,0.1c-0.5,0.3-0.4,1,0.2,1.6c0.5,0.6,1.3,0.9,1.7,0.7c0.5-0.3,0.4-0.9-0.2-1.6C187.8,75.7,187.1,75.3,186.7,75.4
			z M353.1,77c-0.1,0-0.3,0.1-0.4,0.1c-0.4,0.3-0.5,0.8-0.3,1.3c0.3,0.4,0.8,0.5,1.3,0.3c0.4-0.3,0.5-0.8,0.3-1.3
			C353.8,77.1,353.4,76.9,353.1,77z M176.3,78c-1.1,0-1.3,0.5,0.1,1.3c0.7,0.4,1.1,1.1,0.8,1.6c-0.3,0.5,0.3,0.6,1.4,0.3
			c1.4-0.3,2.7,0.2,4.8,1.9c3.4,2.9,4.8,2.5,2.5-0.7c-1-1.4-3.2-2.8-5.4-3.6c-1.4-0.5-2.7-0.8-3.6-0.8C176.6,78,176.4,78,176.3,78z
			 M592.4,78.7c-1.3,0-2.3,0.8-3.6,2.4c-1.1,1.5-2,2.9-2,3.1c0,0.2,1.4,0,3.1-0.6c1.7-0.6,3.8-1.1,4.8-1.2c2.5-0.1,3-1,1.2-2.3
			C594.5,79.2,593.4,78.7,592.4,78.7z M444.4,79.3c-0.9,0-1.6,0.7-1.2,1.5c0.3,0.4,0.8,0.8,1.2,0.8c1.1,0,1.8-1.5,0.8-2
			C445,79.4,444.7,79.3,444.4,79.3z M439.8,80.3c-0.1,0-0.3,0.1-0.4,0.1c-0.4,0.3-0.5,0.8-0.3,1.3c0.3,0.4,0.8,0.5,1.3,0.3
			c0.4-0.3,0.5-0.8,0.3-1.3C440.5,80.4,440.1,80.2,439.8,80.3z M574,81.9c-0.1,0-0.3,0.1-0.4,0.1c-0.4,0.3-0.5,0.8-0.3,1.3
			c0.3,0.4,0.8,0.5,1.3,0.3c0.4-0.3,0.5-0.8,0.3-1.3C574.7,82,574.4,81.9,574,81.9z M600.2,81.9c-0.1,0-0.3,0.1-0.4,0.1
			c-0.4,0.3-0.5,0.8-0.3,1.3s0.8,0.5,1.3,0.3c0.4-0.3,0.5-0.8,0.3-1.3C600.9,82,600.5,81.9,600.2,81.9z M165.9,82.2
			c-0.3,0.1-1.7,0.2-3,0.2c-1.4,0-2.3,0.3-2.1,0.7s1.6,0.6,3.1,0.4c1.5-0.1,1.9-0.1,1,0.2c-2.8,0.7-5.3,2.2-4.8,2.9
			c0.6,1,1.1,0.9,4.2-1c1.5-0.9,2.7-2.1,2.5-2.7C166.6,82.4,166.2,82.1,165.9,82.2z M190.9,82.4c-0.2,0,0,0.3,0.6,1.1
			c1.3,1.6,2.2,1.8,3,0.6c0.3-0.5,0.2-0.8-0.3-0.8c-0.4,0-1.5-0.3-2.3-0.6C191.4,82.5,191,82.4,190.9,82.4z M351.4,83.5
			c-0.1,0-0.3,0.1-0.4,0.1c-0.4,0.3-0.5,0.8-0.3,1.3c0.3,0.4,0.8,0.5,1.3,0.3c0.4-0.3,0.5-0.8,0.3-1.3
			C352.1,83.6,351.8,83.5,351.4,83.5z M571.5,83.5c-0.1,0-0.3,0.1-0.4,0.1c-0.4,0.3-0.5,0.8-0.3,1.3c0.3,0.4,0.8,0.5,1.3,0.3
			c0.4-0.3,0.5-0.8,0.3-1.3C572.2,83.6,571.9,83.5,571.5,83.5z M156.7,84c-0.2,0-0.4,0.4-0.4,0.8s0.4,0.8,0.9,0.8
			c0.5,0,0.6-0.4,0.4-0.8C157.3,84.4,156.9,84,156.7,84z M175.5,85.2c-0.1,0-0.3,0.1-0.4,0.1c-0.4,0.3-0.5,0.8-0.3,1.3
			c0.3,0.4,0.8,0.5,1.3,0.3c0.4-0.3,0.5-0.8,0.3-1.3C176.2,85.3,175.8,85.1,175.5,85.2z M567.5,85.2c-0.1,0-0.3,0.1-0.4,0.1
			c-0.4,0.3-0.5,0.8-0.3,1.3c0.3,0.4,0.8,0.5,1.3,0.3c0.4-0.3,0.5-0.8,0.3-1.3C568.2,85.3,567.8,85.1,567.5,85.2z M594.9,85.3
			c-1.1,0-1.9,0.5-3,1.8c-1.3,1.5-1.6,2.4-1,3.1c1.2,1.4,0.2,2.2-2.1,1.6c-1.1-0.3-3.2,0.1-4.9,0.9c-2.2,1-3.4,1.2-4.3,0.6
			c-1-0.6-2.6-0.5-5.8,0.3c-2.4,0.6-5.6,1.2-7,1.2c-2.6,0-7.2,1.6-7.8,2.6c-0.2,0.3,0.4,1.1,1.2,1.7c1.5,1.1,1.1,3.5-0.4,2.6
			c-0.4-0.3-3.2-0.6-6.1-0.7c-5.1-0.2-5.3-0.2-5.3,1.7c0,1.1,0.5,1.9,1.2,1.9c2,0,4.5,2.8,4.8,5.3c0.2,2-0.1,2.5-1.4,2.5
			c-1.3,0-1.6-0.5-1.5-2.1c0.1-1.8-0.4-2.4-3.5-3.6c-2.6-1-3.9-1.1-4.7-0.5c-0.8,0.6-1.3,0.6-2-0.1c-0.6-0.6-1-0.7-1-0.1
			c0,0.5,1,1.5,2.1,2.3c3,2,1.3,3.4-2,1.7c-1.6-0.8-2.8-2.2-3.3-3.9c-0.4-1.5-0.8-2.1-0.8-1.3c0,0.7-0.6,1.8-1.3,2.4
			c-0.7,0.6-1,1.6-0.7,2.4c0.5,1.1,0.8,2.8,1.1,5.2c0,0.3,1.1,0.6,2.3,0.6c2.5,0,6,2.9,6,5c0,0.8,0.6,1.7,1.4,1.9
			c1,0.4,1.1,0.8,0.5,1.4c-1.2,1.2-4.3-0.5-4.3-2.4c0-1.7-1.5-3.4-3-3.4c-0.6,0-1.6,1.4-2.3,3.1c-0.7,1.7-2.4,4-3.7,5
			c-2.4,1.8-2.6,1.8-5.3,0.5c-1.6-0.7-2.6-1.7-2.4-2.1c0.6-1,3.4-1,4.1,0.1c2.6,4.1,5.4-10.2,2.9-14.6c-0.4-0.7-0.3-2.1,0.2-3.2
			c1-2.2-0.2-3.4-3.4-3.5c-1.4,0-2.1,0.7-2.7,2.4c-0.5,1.3-1.7,3-2.8,3.7c-1.7,1.1-1.9,1.5-1,3.1c0.6,1,1.7,2.3,2.5,2.9
			c0.8,0.6,1.4,1.6,1.4,2.3c0,2-2.4,2.3-4.3,0.5c-1.1-1-3.6-1.9-6.1-2.2c-4-0.5-4.4-0.4-6.2,1.7c-1.3,1.6-2.4,2.1-3.4,1.7
			c-1.2-0.5-1.3-0.7-0.3-1.9c0.9-1.1,0.6-1-1.3,0.2c-1.3,0.9-3.7,2-5.2,2.5c-2.5,0.9-2.8,0.8-3.2-0.6c-0.4-1.4-0.6-1.4-2.7-0.3
			c-1.3,0.7-3.1,1.2-4.1,1.2c-1,0-3,1.1-4.6,2.5c-3.1,2.7-4.5,3-6,1.2c-0.8-1-0.7-1.3,0.8-1.9c1.7-0.6,1.6-0.7-1.1-2
			c-3.2-1.5-3.4-1.3-2,2.6c1.1,3.1-0.2,5.5-2.4,4.2c-1.4-0.8-6.2,2-5.5,3.2c0.2,0.4-0.1,1.1-0.7,1.6c-0.9,0.7-1.7,0.7-3.7-0.3
			c-2.7-1.4-3.4-0.9-1.1,0.8c1.1,0.8,1.2,1.3,0.5,2c-1.4,1.5-5.9-1.2-6.6-3.9c-0.3-1.2-1.3-2.8-2.3-3.6c-1.5-1.2-1.6-1.4-0.4-1.9
			c0.7-0.3,2.5,0.1,3.9,0.8c4.4,2.3,11.6,1,11.6-1.9c0-1.3-9.4-6.6-11.8-6.6c-0.6,0-1.6-0.6-2.1-1.3c-0.8-0.9-2-1.1-4.9-0.7
			c-4.3,0.6-6.3-0.8-3.1-2.1c1.9-0.8,1.9-0.8-0.3-0.8c-1.2,0-2.4-0.4-2.7-0.9c-0.3-0.5-0.9-0.8-1.3-0.8c-0.5,0-0.5,0.5-0.2,1
			c0.5,0.8,0.4,0.8-0.6,0c-0.9-0.7-1.5-0.7-2.1-0.1c-0.6,0.6-1,0.6-1.5-0.2c-0.4-0.7-0.3-0.8,0.4-0.4c0.7,0.4,0.9,0.3,0.5-0.3
			c-0.4-0.6-1.1-0.7-2.1-0.2c-0.8,0.4-1.8,0.5-2.1,0.2c-0.4-0.3-0.4-0.2-0.1,0.4c0.9,1.5-1.9,2.7-4.3,1.8c-1.8-0.7-1.9-0.6-0.9,0.7
			c0.6,0.8,0.8,1.2,0.4,0.8c-0.4-0.3-1.2-0.2-1.8,0.3c-0.6,0.5-1.1,0.6-1.1,0.3c0-0.3-0.5-0.2-1.2,0.4c-0.6,0.5-1.7,0.9-2.3,0.8
			c-2.5-0.3-3.3,0-2.5,1.1c1.1,1.4-0.1,3.4-2.1,3.5c-0.9,0-1.5,0.6-1.5,1.6c0,0.9-0.2,1.5-0.5,1.2c-0.3-0.2-1.4,0.4-2.5,1.4
			c-1.1,1-2.3,1.6-2.6,1.2c-0.4-0.3-0.5,0-0.2,0.8c0.3,0.9,0.1,1.6-0.5,1.8c-4,1.2-4.3,1.4-3.1,2.1c0.6,0.4,1.2,1.7,1.3,2.9
			c0.1,2.4-2,4-3.8,2.8c-1.6-1-2.4-1-2.2,0.1c0.1,0.5-0.5,1.3-1.4,1.8c-4.1,2.5-4.8,4-3.5,7.1c0.3,0.7,0.4,2.3,0.3,3.7
			c-0.2,2.1,0.1,2.5,1.9,2.7c1.4,0.2,3-0.5,4.7-1.9l2.5-2.1l1.2,2.3c0.6,1.3,1.6,3.7,2.2,5.5c1.5,4.6,1.6,4.7,3.7,3.3
			c1.1-0.7,2.7-1.3,3.7-1.3c1.4,0,1.7-0.4,1.3-1.7c-0.6-2.3,0.7-5.7,2.3-5.7c0.7,0,1.1-0.3,0.8-0.8c-0.3-0.4-0.1-1,0.4-1.3
			c0.6-0.4,0.3-1.2-0.8-2.4c-1.4-1.5-1.6-2.4-1-5c0.6-2.9,2-4.4,6.5-6.6c0.6-0.3,1-1.3,1-2.2c0-3.8,5.1-6.2,7.4-3.5
			c1.1,1.4,0.9,1.8-4.1,7.1c-2.5,2.6-2.9,3.4-2.6,6.3c0.4,4.5,1.5,5.1,5.5,3.7c3.9-1.4,8.3-1.5,9.9-0.2c2.3,1.9,0.2,2.6-9.7,3.1
			c-1.5,0.1-2,2.9-0.6,3.8c1.1,0.7,1,3.5-0.1,4.2c-0.5,0.3-1.4-0.1-2-0.9c-1.6-2.2-3.8-0.2-3.2,2.8c0.4,1.7,0,2.5-2.1,4
			c-2,1.5-2.8,1.7-3.7,0.9c-1-0.8-2-0.6-5.3,1.2c-4,2.1-4.2,2.1-4.6,0.6c-0.4-1.4-0.7-1.5-2.8-0.7c-2,0.7-2.7,0.6-4-0.6
			c-1-0.9-1.4-2-1.1-2.8c1.2-3,1.1-4.2-0.3-4c-1.4,0.3-1.6,1.8-0.9,6.8c0.3,2.3,0.1,2.5-2.3,2.5c-1.5,0-3.3,0.7-4.2,1.4
			c-0.8,0.7-1.7,1.1-2,0.8c-0.3-0.3-0.6,0.2-0.6,1c0,2-1.5,3.6-3.4,3.6c-0.8,0-1.8,0.7-2.3,1.6c-1,1.8-5.4,4.4-6.5,3.7
			c-0.4-0.2-0.9,0.3-1.2,1.2c-0.3,1.3-0.8,1.5-2.5,1.1c-2.7-0.7-2.8,1-0.1,2.1c2.1,0.8,4.3,4.9,4.4,8.2c0.1,2.7-2.1,5-4.3,4.5
			c-2.7-0.6-9.8-1.1-10.8-0.7c-0.6,0.2-0.8,1.8-0.5,4.3c0.2,2.2,0,4.7-0.5,5.6c-1.2,2.3,0.5,5.9,2.9,6c1,0,2.2,0.6,2.6,1.4
			c0.7,1.2,1.1,1.2,2.7,0.5c1.1-0.5,2.8-1.1,4-1.4c3-0.7,5.1-2.5,5.4-4.7c0.1-1.1,0.2-2.2,0.3-2.6c0-0.3,1.5-1.4,3.3-2.3
			c2.4-1.2,3.3-2.2,3.3-3.6c0-2.6,2-4,4.7-3.5c1.3,0.3,2.9,0,3.8-0.7c2.4-1.7,4.3-1.4,6,0.9c2.2,3.2,6.7,7.2,8.2,7.4
			c2.1,0.3,4.4,3.5,3.8,5.4c-0.4,1.1-0.2,1.5,0.5,1c0.6-0.4,0.8-1.5,0.5-2.9c-0.5-2.7,0.1-3.6,1.6-2.4c0.7,0.6,1.1,0.6,1.1,0.1
			c0-0.5-1.7-1.7-3.8-2.7c-2.4-1.2-4.3-2.9-5.3-4.8c-0.9-1.6-2-3.5-2.6-4.3c-0.8-1.2-0.7-1.7,0.4-2.8c1.3-1.3,1.4-1.3,1.9,0
			c0.3,0.8,0.8,1.2,1.2,1c0.4-0.2,1.2,0.5,1.9,1.6c0.7,1.1,2.9,3.2,4.9,4.6c2.5,1.8,3.9,3.4,4.2,5.1c0.6,2.9,4.4,7.9,5.9,7.9
			c0.6,0,0.8-0.4,0.6-0.8c-0.3-0.5-0.9-0.6-1.4-0.3c-0.5,0.3-0.7,0.2-0.3-0.4c0.5-0.7,0.9-0.7,1.8,0c1.3,1.1,0.8,2.4-0.9,2.4
			c-0.6,0-1.2,0.6-1.2,1.2c0,1.6,0.4,1.5,2.9-0.1c2.5-1.6,2.5-2.5,0.3-4.3c-1.6-1.3-1.5-3.9,0.1-2.9c0.4,0.2,0.9-0.1,1.2-0.8
			c0.3-0.9,1.4-1.1,3.6-0.9c2.5,0.2,3.4,0,4.2-1.3c0.7-1.1,0.8-1.9,0.2-2.6c-1.2-1.4,2.6-8.8,5.6-11c2-1.5,2.8-1.7,4.1-0.9
			c1.2,0.7,1.5,1.2,0.8,1.9c-0.6,0.8-0.4,1.3,1.1,2.1c2.5,1.3,4.5,0.3,2.4-1.2c-1-0.7-1.2-1.3-0.7-1.8c1.2-1.1,6.2-2.7,7-2.2
			c0.9,0.5,0.5,2.4-0.7,3.9c-0.8,1-0.3,1.7,3.1,4.3c4.7,3.6,5.5,5,3.8,6.9c-1.6,1.7-6.3,1.6-10.4-0.2c-3.7-1.7-5.3-1.7-8-0.2
			c-1.1,0.6-2.8,1.2-3.8,1.2c-1,0-2,0.6-2.3,1.3c-0.3,0.7-0.9,1.2-1.5,1.1c-2.4-0.3-2.9,0.2-2.6,2.7c0.1,1.5,0.3,2.8,0.4,2.9
			c0.1,0.1,0.2,0.5,0.3,0.9c0.1,0.9,1.2,2.1,2,2.2c0.3,0,1.2,0.4,2,0.7c0.8,0.4,1.9,0.3,2.3-0.2c0.6-0.6,1.7-0.6,3.6,0
			c2,0.6,3.4,0.6,4.9-0.1c3-1.3,3.2-0.1,1.3,7.2c-1.9,7.3-3.9,9.5-7.1,7.8c-1.5-0.8-2.7-0.8-4.3-0.2c-1.8,0.7-3.4,0.4-8.3-1.4
			c-9-3.3-9-3.3-11.4,2c-1,2.2-3.1,1.8-8.3-1.6c-2.8-1.8-5.8-3.3-6.6-3.3c-0.8,0-2.2-0.8-3.1-1.7c-1.3-1.3-1.5-2-0.8-3.2
			c1-1.9,0.3-5.5-1.3-6.1c-0.6-0.2-3.2-0.1-5.7,0.4c-2.5,0.5-5.1,0.7-5.7,0.4c-0.6-0.2-4.2,0.7-8,2c-7.3,2.6-9.9,3-10.7,1.6
			c-0.9-1.4-1.6-0.9-2.6,1.6c-0.5,1.3-2.1,3.1-3.5,3.9c-2.3,1.3-3.1,3.3-2.6,6.3c0.3,1.8-2,5.6-4.1,6.6c-1.2,0.6-3.4,3.2-4.8,5.6
			c-1.4,2.5-3,4.6-3.5,4.8c-1.4,0.5-1.8,2.9-1.6,10.6c0.1,4.8-0.2,8-1,10c-1.1,2.7-1.1,3,0.4,4.3c0.9,0.8,1.6,1.8,1.6,2.3
			s1.3,2.4,2.9,4.3c1.6,1.9,2.8,4.1,2.7,4.8c-0.4,2,2.6,5.7,6.4,8.2c3.4,2.1,3.8,2.2,7.4,1.3c2.1-0.5,4.7-0.7,5.9-0.5
			c1.2,0.3,4.1-0.2,6.6-1.2c2.5-0.9,5.3-1.7,6.3-1.7c1.8,0,4.6,2.1,5.2,4c0.2,0.6,1.1,0.7,2.9,0.2c3.8-1.1,5.1,0.7,4.6,6.5
			c-0.7,8.1-0.5,9.9,1.7,12.2c1.9,2,3.7,5.6,3.5,6.8c-0.1,0.3,0.5,1.2,1.3,2c0.8,0.8,1.4,2.4,1.4,3.6s0.2,3.1,0.6,4.3
			c0.4,1.4,0.1,3.2-0.7,5c-0.7,1.5-1.7,4.6-2.3,6.9c-0.8,3.6-0.8,4.5,0.7,7.7c1.9,4.1,2.6,6.4,3.1,10.9c0.7,5.7,2,9.6,5.3,16
			c3.5,6.8,3.8,8,2,8.7c-2,0.8,2.7,4.6,4.8,4c0.9-0.3,4.1-0.8,7.2-1.2c6-0.7,8.4-1.9,11.2-5.5c4.2-5.5,6-9,6.2-12.3
			c0.2-3,0.7-3.8,3-5.4c2.5-1.7,2.7-2.2,2.5-5.4c-0.1-1.9-0.6-4.2-1-5c-0.6-1.2-0.2-2,1.8-4c1.4-1.4,3.6-3.1,4.9-3.7
			c2-1.1,4.1-3.6,4.5-5.5c0.1-0.3,0.2-0.9,0.3-1.2c0.6-2.1-0.3-9.8-1.3-11.2c-0.6-0.9-1.2-2.7-1.2-4s-0.3-2.9-0.7-3.7
			c-1.4-2.7,5.2-13.8,10.5-17.7c1.6-1.1,3.9-3.5,5.2-5.1c3.1-4.1,7.9-14.1,8.2-17c0.1-1.3,0.9-2.6,1.8-3c1.9-0.8,0.1-0.5-7.9,1.2
			c-5,1.1-5.4,1.1-7.6-0.4c-1.2-0.9-2.1-1.9-1.8-2.3c0.2-0.4,0-0.9-0.4-1.2c-0.5-0.3-1.8-2-2.9-3.8c-1.1-1.8-2.8-3.9-3.7-4.8
			c-0.9-0.9-1.6-2.2-1.6-2.8s-0.7-1.6-1.6-2.1c-1.3-0.7-1.6-1.7-1.6-4.8c0-2.1-0.5-4.6-1.1-5.5c-0.6-0.9-1.3-2.5-1.6-3.7
			c-0.3-1.1-1.8-4-3.4-6.4c-1.6-2.4-2.9-4.9-2.9-5.5c0-2,1.6-2.2,2.3-0.3c0.6,1.7,0.7,1.7,1.3,0.3c0.6-1.5,0.7-1.4,2.2,0.5
			c2,2.6,4,7.1,4,9.1c0,0.8,0.5,1.5,1.2,1.5c1.6,0,2.9,2.6,2.9,5.5c0,2.5,1.4,4.9,4.8,8.6c1.4,1.5,2.1,3.3,2.2,5.3
			c0.3,6.8,1.7,8.6,5.1,6.8c0.8-0.4,4.2-2.1,7.5-3.7c3.4-1.6,7.3-3.6,8.7-4.4c3-1.7,8.8-6.6,7.9-6.6c-0.4,0,0.2-0.7,1.2-1.5
			c1-0.8,1.6-1.7,1.3-2c-0.3-0.3,0.1-1.2,0.9-2.1c1.4-1.5,1.3-1.7-1.9-3.7c-1.9-1.2-3.6-3-3.9-4.2l-0.5-2.1l-1.2,1.8
			c-1.4,2-6.4,4.4-7.6,3.6c-0.4-0.3-0.8-1-0.8-1.6s-0.6-1.5-1.2-2.1c-0.7-0.6-1.2-1.6-1.2-2.4c0-0.7-1.1-3-2.5-5
			c-2.2-3.3-2.3-3.8-1.2-4.6c1.9-1.4,4.4-0.5,5.7,2c1.9,3.7,5.9,6.1,9.2,5.4c2.4-0.5,2.9-0.3,3.3,1.1c0.5,2.1,3.2,2.8,11.2,3
			c5.9,0.1,6.6,0.3,8.2,2.3c0.9,1.2,2.7,2.4,4,2.7c2.8,0.7,3.6,1.9,1.9,2.5c-1,0.4-1.1,0.8-0.4,1.6c1.4,1.7,2.9,1.4,3.5-0.6
			c0.8-3.1,2.2-0.7,2.1,3.6c0,2.3,0.1,4.8,0.3,5.5c0.2,0.7,0.8,3,1.4,5.1c0.6,2.1,1.4,4.1,1.8,4.3c0.4,0.2,0.7,1.1,0.7,1.9
			c0,0.8,1.3,3.9,2.8,6.9l2.8,5.4l1.3-2c1.9-2.9,2.9-6.9,2.9-11.7c0-3.6,0.3-4.4,1.8-5.2c2.4-1.3,11.6-10.5,12.3-12.4
			c0.4-1,1.4-1.4,3.2-1.4c1.4,0,3.3-0.6,4.1-1.3c1.4-1.2,1.6-1.1,3.1,1.4c0.9,1.5,2.4,3.6,3.4,4.7c1.3,1.5,1.7,2.8,1.5,5.5
			c-0.2,2.9,0,3.5,1.1,3.5c0.8,0,2.1-0.8,3-1.7c1.9-2,2.2-1.6,3,3.7c0.3,2.3,0.9,4.5,1.4,5c0.4,0.5,0.6,3.3,0.4,6.3
			c-0.3,4.4-0.1,5.7,1.2,7.4c0.9,1.1,1.6,2.6,1.6,3.2c0,3.8,5.4,11.8,7,10.3c0.1-0.1-0.2-2.3-0.7-4.7c-0.7-2.9-1.7-5-3.1-6.1
			c-1.2-1-2.4-2.7-2.7-3.8c-0.3-1.1-1.1-2.4-1.8-2.9c-1-0.8-1-1.4,0-4.9c1.1-3.7,1.4-4,3.6-3.8c3.6,0.4,4.4,0.8,4.4,2.4
			c0,0.8,0.7,1.9,1.6,2.5c0.9,0.6,1.6,1.9,1.6,3.1c0,2.1,0.1,2.1,4.1-1.4l4.1-3.6l-0.3-4.6c-0.2-3.5-0.8-5.4-2.7-8
			c-1.3-1.9-2.9-4.1-3.5-5c-1-1.4-0.8-1.9,1.8-4.6c2.8-2.8,3.1-2.9,4.5-1.6c1.3,1.2,1.6,1.2,2,0.1c0.3-0.7,1.2-1.3,2-1.3
			c0.8,0,1.9-0.4,2.3-0.8c0.5-0.5,2.4-1,4.3-1.3c2.7-0.4,4.2-1.3,7.1-4.3c2-2.1,3.6-4.3,3.7-4.9c0-0.6,0.9-2.3,2.1-3.8
			c2.4-3.2,2.5-4.2,0.6-5c-1.3-0.5-1.3-0.6,0.2-1.7c1.3-1,1.4-1.2,0.3-1.2c-2,0-2.6-1.7-0.8-2.2c1.6-0.4,1.5-0.6-0.8-4.1
			c-2.4-3.5-2.4-3.7-1.1-5.7c0.8-1.1,2.5-2.6,4-3.3l2.6-1.2l-3.6,0.4c-3.8,0.4-7.4-1.2-7.4-3.2c0-1.8,7.6-6.9,8.8-6
			c0.8,0.6,0.7,1.3-0.3,2.8c-0.7,1.1-1.1,2.2-0.9,2.5c0.2,0.2,0.9-0.3,1.4-1.3c1-1.9,3.3-2.2,5.8-0.9c1.2,0.7,1.4,1.2,0.8,2.4
			c-0.6,1.2-0.4,1.8,1.1,2.8c1.5,1,1.9,1.9,1.7,4.5c-0.2,3.2-0.1,3.2,2,2.4c3.5-1.5,3.6-1.8,1.4-7.2l-2.1-5.1l1.9-2.1
			c1.1-1.2,3.2-3.6,4.8-5.3c2.3-2.6,3.1-3,4.1-2.2c1.7,1.4,3.4,0.5,6.9-3.8c6.7-8.1,9.3-14.3,9.4-22.5c0.1-2.8-2.1-5.3-3.6-4.1
			c-1.3,1-4.3,1-4.3,0c0-0.4-0.9-1-1.9-1.4c-1.7-0.6-1.8-0.8-0.7-2.4c0.6-0.9,4.2-4.3,7.9-7.4c6.4-5.4,9.9-6.9,11.8-5.1
			c0.8,0.8,6.4,0.3,7.6-0.7c0.6-0.5,1.6-0.5,2.9,0.2c2.4,1.3,8.3,1.6,7.2,0.3c-1.2-1.4,6.4-7.4,9.6-7.6c2.6-0.2,4.3,0.9,2.7,1.9
			c-0.5,0.3-0.8,1.1-0.8,1.8c0,1.1,0.3,1,1.9-0.4c1-1,2.3-1.8,2.9-1.8c0.5,0,1-0.5,1-1.1c0-1.5,2.2-3.3,3.2-2.6
			c1.1,0.7-1.7,5.7-3.5,6c-0.8,0.1-3.3,2.3-5.6,4.7c-2.3,2.4-4.6,4.4-5.1,4.4c-0.5,0-1.6,1.1-2.3,2.4c-1.6,2.8-1.7,8.7-0.3,13.6
			l1,3.3l2-2.7c1.1-1.5,2.5-2.7,3.1-2.7c0.6,0,0.9-0.4,0.6-0.8c-0.8-1.4,2-5.1,3.5-4.5c0.9,0.3,1.1,0.1,0.8-0.8
			c-0.6-1.6,0.9-4.7,2-4c0.4,0.3,0.8,0.1,0.8-0.3s-0.4-1-0.8-1.3c-0.5-0.3-0.6-0.9-0.4-1.3c0.3-0.4,0.1-1.2-0.4-1.8
			c-1.1-1.4,1.9-6.6,3.6-6c0.6,0.2,1.6-0.1,2.1-0.7c0.5-0.7,1.4-1.1,1.9-1c0.5,0.1,2-0.2,3.2-0.5c1.7-0.5,2.7-0.3,3.6,0.6
			c1.2,1.2,1.5,1.1,3.9-0.7c4.3-3.3,11.4-6.1,13-5.1c0.9,0.5,1.8,0.5,2.2,0.1c1-1-1.5-6-2.9-6c-1.5,0-3.2-2.2-2.2-2.8
			c0.4-0.3,1.7-0.1,2.9,0.3c2.8,1.1,4.6,0.3,4.6-2.1c0-2.5,1.6-3.4,2.2-1.3c0.5,2,0.6,2,2.7,0.9c1.1-0.6,1.8-0.4,2.9,0.8
			c0.8,0.9,1.9,1.6,2.5,1.6c0.6,0,1.5,0.6,2,1.2c1.2,1.4,2.8,1.7,2,0.4c-0.6-1,1.9-4,3.3-4c0.5,0,1.4-0.4,1.9-1
			c0.7-0.7,0.2-1.3-2.4-2.5c-4.2-1.9-4.5-1.9-5.1,0.2c-0.5,2-2.2,1.3-2.2-0.9c0-3.7-10.7-8.8-19.9-9.5c-3.7-0.3-7.4-0.9-8.2-1.3
			c-1.4-0.7-1.5-0.5-1,1.7c0.7,3.2-0.5,3.8-3.8,1.9c-2-1.1-4.2-1.5-8.4-1.4c-6.8,0.2-9.4-0.6-9.4-2.8c0-2.2-1.8-2.7-9.1-2.1
			c-5.3,0.4-6.5,0.3-6.9-0.7c-0.3-0.7-1-1.1-1.6-0.8c-1.1,0.4-2.4-1-2.5-2.6c0-1.5-2.9-1.4-5.6,0.3c-3,1.9-4.5,1.4-2.5-0.8
			c1.2-1.3,1-1.4-3.5-1.4c-2.6,0-5.3-0.1-5.9-0.3c-0.8-0.2-1.2,0.5-1.2,2.2c-0.1,2-0.4,2.5-1.8,2.5c-1,0-2,0.2-2.3,0.5
			c-0.3,0.3-1.5,0-2.6-0.6c-1.6-0.8-2.4-0.9-3.6-0.1c-1.2,0.7-1.9,0.7-3.1,0c-1.3-0.8-1.6-0.7-2,0.6c-0.8,3-2.8,2.7-7-1
			c-4.1-3.6-4.5-4.8-1.7-4.8c1.3,0,1.4-0.2,0.7-1.5c-0.7-1.1-1.9-1.5-5.1-1.4c-2.4,0-4.6,0.5-5,1.1c-1.1,1.4-9.9,1-9.6-0.5
			c0.3-1.3-7.3-1.4-8.6-0.1c-0.7,0.7-1.2,0.4-2-1c-0.6-1.1-1.1-2.2-1.1-2.5c-0.1-1.2-1-1.4-3.7-0.7c-2.3,0.5-2.5,0.7-0.8,0.8
			c2,0.1,6.1,2.5,4.3,2.5c-0.5,0-1.2-0.4-1.4-0.8c-0.3-0.5-1.5-0.8-2.7-0.8c-2.1,0-2.1,0.1-0.6,1.2c1.6,1.2,1.6,1.2-0.1,1.7
			c-0.9,0.3-2.2,0.8-2.9,1.2c-1.8,0.9-6.1,0.6-6.1-0.3c0-0.5,1.2-1.4,2.7-2.2c1.5-0.7,3.4-1.9,4.2-2.7c0.8-0.7,2.2-1.3,3-1.3
			c2.4,0,5.7-2.1,4.5-2.8c-0.7-0.5-0.7-0.9,0.1-1.9c0.9-1.1,0.8-1.2-0.2-0.8c-0.7,0.2-1.8-0.1-2.6-0.7c-1.1-0.9-2.1-1-5.1-0.3
			c-2.4,0.5-4.3,0.6-5.2,0.1c-0.8-0.4-2.2-1-3.1-1.3c-1.6-0.5-1.6-0.6-0.2-1.6c1.3-1,1.3-1.1-0.8-1.6
			C595.6,85.3,595.2,85.2,594.9,85.3L594.9,85.3z M205.8,86c-0.1,0-0.3,0.1-0.4,0.1c-0.4,0.3-0.5,0.8-0.3,1.3
			c0.3,0.4,0.8,0.5,1.3,0.3c0.4-0.3,0.5-0.8,0.3-1.3C206.5,86.1,206.1,85.9,205.8,86z M579.7,86c-0.1,0-0.3,0.1-0.4,0.1
			c-0.4,0.3-0.5,0.8-0.3,1.3c0.3,0.4,0.8,0.5,1.3,0.3c0.4-0.3,0.5-0.8,0.3-1.3C580.4,86.1,580.1,85.9,579.7,86z M153.2,86.5
			c-0.2,0-0.6,0.2-1.1,0.7c-0.5,0.5-1.9,1-2.9,1c-1.1,0-3.3,1.2-4.9,2.6c-2.4,2.1-2.6,2.5-1.2,2.1c1-0.3,2.1-0.1,2.4,0.4
			s1.3-0.3,2.1-1.7c1.2-1.9,1.9-2.4,2.7-1.7c0.8,0.7,1.4,0.4,2.4-1C153.6,87.4,153.7,86.4,153.2,86.5z M224.4,86.6
			c-0.3,0-0.5,0.1-0.7,0.2c-0.3,0.3,0.2,0.4,1.1,0.4c1,0,1.1-0.2,0.5-0.5C225,86.6,224.7,86.6,224.4,86.6z M565,86.8
			c-0.1,0-0.3,0.1-0.4,0.1c-0.4,0.3-0.5,0.8-0.3,1.3c0.3,0.4,0.8,0.5,1.3,0.3c0.4-0.3,0.5-0.8,0.3-1.3
			C565.7,86.9,565.4,86.8,565,86.8z M601.8,86.8c-0.1,0-0.3,0.1-0.4,0.1c-0.4,0.3-0.5,0.8-0.3,1.3c0.3,0.4,0.8,0.5,1.3,0.3
			c0.4-0.3,0.5-0.8,0.3-1.3C602.5,86.9,602.2,86.8,601.8,86.8z M158.3,87.6c-0.1,0-0.3,0.1-0.4,0.1c-0.4,0.3-0.5,0.8-0.3,1.3
			c0.3,0.4,0.8,0.5,1.3,0.3c0.4-0.3,0.5-0.8,0.3-1.3C159,87.7,158.6,87.6,158.3,87.6z M242.6,87.6c-0.1,0-0.3,0.1-0.4,0.1
			c-0.4,0.3-0.5,0.8-0.3,1.3c0.3,0.4,0.8,0.5,1.3,0.3c0.4-0.3,0.5-0.8,0.3-1.3C243.3,87.7,242.9,87.6,242.6,87.6z M438.2,88.5
			c-0.1,0-0.3,0.1-0.4,0.1c-0.4,0.3-0.5,0.8-0.3,1.3c0.3,0.4,0.8,0.5,1.3,0.3c0.4-0.3,0.5-0.8,0.3-1.3
			C438.9,88.5,438.5,88.4,438.2,88.5z M685.3,88.5c-0.1,0-0.3,0.1-0.4,0.1c-0.4,0.3-0.5,0.8-0.3,1.3c0.3,0.4,0.8,0.5,1.3,0.3
			c0.4-0.3,0.5-0.8,0.3-1.3C686,88.5,685.6,88.4,685.3,88.5z M193.8,89c-0.6,0-0.7,0.2-0.5,0.8c0.2,0.7,1.9,1.3,4,1.6
			c3.1,0.3,3.7,0.7,4,2.5c0.4,2,1.2,2.4,5.4,2.7c1,0.1,2.1,0.5,2.5,0.8c0.4,0.4,3.3,0.5,6.4,0.2c3.2-0.3,6.9-0.5,8.4-0.5
			c1.7,0,2.5-0.3,2.2-0.9c-0.3-0.5,0-1.5,0.6-2.3c0.9-1.2,0.9-1.3-0.1-0.5c-0.7,0.5-2.1,0.9-3.3,0.9s-5.2,0.2-9,0.4
			c-7.1,0.4-10.6-0.6-10.6-3.1c0-0.6-1.3-1.2-3.1-1.5c-1.7-0.2-4.1-0.7-5.4-1C194.7,89.1,194.2,89,193.8,89L193.8,89z M581.4,89.3
			c-0.1,0-0.3,0.1-0.4,0.1c-0.4,0.3-0.5,0.8-0.3,1.3c0.3,0.4,0.8,0.5,1.3,0.3c0.4-0.3,0.5-0.8,0.3-1.3
			C582.1,89.4,581.7,89.2,581.4,89.3z M523.9,89.5c-1,0-2.7,0.4-4.6,1.2c-2.3,1-4.9,1.6-6.4,1.4c-1.5-0.2-4.1,0.2-6.1,1.1
			c-2,0.8-4.7,1.5-6.1,1.5c-2,0-2.3,0.2-1.6,1c0.8,0.8,0.4,1.5-1.5,3.3c-1.7,1.5-2.2,2.4-1.4,2.6c2.8,0.9,3.3,1.3,1.3,1
			c-2.6-0.3-3.1,0-5.1,3.1c-1.2,2-1.3,2.3-0.2,1.9c1.4-0.5,3.4,1.4,2.7,2.5c-0.2,0.4,1.3,0.7,3.4,0.8c2.1,0,3.3-0.1,2.6-0.3
			c-1.6-0.6-3.3-2.7-3.3-4.3c0-1.7,6.4-8.8,9.3-10.3c1.3-0.7,3-1.2,3.8-1.2c1.6,0,10.8-2.9,12.8-4C525,89.9,524.8,89.5,523.9,89.5z
			 M168.7,89.8c-0.4,0-0.7,0.8-0.6,2.2c0.1,1.8-0.2,2.3-1.7,2.5c-1,0.1-2.7-0.2-3.7-0.9c-1-0.7-3.3-1.5-5.1-1.8
			c-3.1-0.5-3.3-0.5-3.3,1.5c0,2,1.5,2.9,2.5,1.4c0.6-0.9,4.5,0,4.6,1.2c0,0.5-0.8,1.1-1.8,1.4c-1.6,0.5-1.5,0.5,0.7,0.6
			c1.4,0,3.6-0.4,4.9-0.9c1.3-0.5,3.8-1.2,5.5-1.4c1.8-0.3,3.3-0.9,3.5-1.5c0.2-0.6-0.3-0.8-1.4-0.6c-1.2,0.2-1.9-0.2-2.5-1.7
			C169.8,90.4,169.2,89.8,168.7,89.8z M184.7,90c-0.5,0-1,0.1-1.5,0.3c-1.4,0.6-1.3,0.8,0.6,2.9c2.7,2.9,5.3,3,5.3,0.2
			C189.1,91.5,186.8,89.9,184.7,90z M178.8,90.1c-0.1,0-0.3,0.1-0.4,0.1c-0.4,0.3-0.5,0.8-0.3,1.3c0.3,0.4,0.8,0.5,1.3,0.3
			c0.4-0.3,0.5-0.8,0.3-1.3C179.5,90.2,179.1,90,178.8,90.1z M691.8,90.1c-0.1,0-0.3,0.1-0.4,0.1c-0.4,0.3-0.5,0.8-0.3,1.3
			c0.3,0.4,0.8,0.5,1.3,0.3c0.4-0.3,0.5-0.8,0.3-1.3C692.5,90.2,692.2,90,691.8,90.1z M184.3,91c0.4-0.1,1.1,0.2,1.5,0.8
			c0.6,0.7,0.6,1.3,0.2,1.6c-0.4,0.3-1.2,0-1.7-0.7c-0.6-0.7-0.6-1.4-0.2-1.6C184.1,91,184.2,91,184.3,91z M664.3,91.7
			c-0.1,0-0.2,0-0.3,0.1c-1.2,0.5-1.6,3.1-0.6,4c0.8,0.8,3.4,0.6,3.9-0.3c0.3-0.5,1.2-0.5,2.6,0c2.8,1.1,3.2,1,2-0.4
			c-0.5-0.7-0.8-1.6-0.5-2c0.3-0.5,0.2-0.8-0.3-0.8c-0.5,0-1.1,0.4-1.4,0.9c-0.4,0.6-1.2,0.4-2.6-0.5
			C666.3,92,665.1,91.6,664.3,91.7z M659.1,91.8c-0.8,0-1.3,1.1-0.6,2.1c0.4,0.6,0.8,0.6,1.4,0c0.6-0.6,0.6-1.1,0-1.8
			C659.6,91.9,659.4,91.8,659.1,91.8z M674.6,92.2c-1.8,0-1.9,0.2-1.1,1.2c1.2,1.4,1.1,1.4,2.8,0.7
			C678.2,93.5,677.1,92.2,674.6,92.2z M149.3,92.5c-0.1,0-0.3,0.1-0.4,0.1c-0.4,0.3-0.5,0.8-0.3,1.3c0.3,0.4,0.8,0.5,1.3,0.3
			c0.4-0.3,0.5-0.8,0.3-1.3C150,92.6,149.6,92.5,149.3,92.5z M191.8,92.5c-0.1,0-0.3,0.1-0.4,0.1c-0.4,0.3-0.5,0.8-0.3,1.3
			c0.3,0.4,0.8,0.5,1.3,0.3c0.4-0.3,0.5-0.8,0.3-1.3C192.5,92.6,192.2,92.5,191.8,92.5z M180.2,92.6c-0.1,0-0.1,0-0.2,0.1
			c-0.5,0.3-0.4,1,0.2,1.6c0.5,0.6,1.3,0.9,1.7,0.7c0.5-0.3,0.4-0.9-0.2-1.6C181.2,92.8,180.6,92.5,180.2,92.6z M350.6,93.4
			c-0.1,0-0.3,0.1-0.4,0.1c-0.4,0.3-0.5,0.8-0.3,1.3c0.3,0.4,0.8,0.5,1.3,0.3c0.4-0.3,0.5-0.8,0.3-1.3
			C351.3,93.5,351,93.3,350.6,93.4z M681.1,93.9c-0.4,0-0.2,0.2,0.6,0.7c0.7,0.4,2.1,0.8,3.3,0.7l2-0.1l-2-0.7
			c-1.1-0.4-2.6-0.7-3.3-0.7C681.5,93.9,681.3,93.9,681.1,93.9z M177.1,94.2c-0.1,0-0.3,0.1-0.4,0.1c-0.4,0.3-0.5,0.8-0.3,1.3
			s0.8,0.5,1.3,0.3c0.4-0.3,0.5-0.8,0.3-1.3C177.8,94.3,177.5,94.1,177.1,94.2z M551.1,94.2c-0.1,0-0.3,0.1-0.4,0.1
			c-0.4,0.3-0.5,0.8-0.3,1.3c0.3,0.4,0.8,0.5,1.3,0.3c0.4-0.3,0.5-0.8,0.3-1.3C551.8,94.3,551.4,94.1,551.1,94.2z M196,94.2
			c-0.2,0-0.3,0-0.5,0c-0.4,0-0.8,0.2-1,0.4c-0.6,0.6-0.5,1.1,0.3,1.7c1.4,0.9,2.6,0.7,3-0.6C198.2,94.9,197.1,94.3,196,94.2z
			 M353.1,95c-0.1,0-0.3,0.1-0.4,0.1c-0.4,0.3-0.5,0.8-0.3,1.3c0.3,0.4,0.8,0.5,1.3,0.3c0.4-0.3,0.5-0.8,0.3-1.3
			C353.8,95.1,353.4,94.9,353.1,95z M425.9,95.8c-0.1,0-0.3,0.1-0.4,0.1c-0.4,0.3-0.5,0.8-0.3,1.3c0.3,0.4,0.8,0.5,1.3,0.3
			c0.4-0.3,0.5-0.8,0.3-1.3C426.6,95.9,426.2,95.8,425.9,95.8z M658.3,97.5c-0.1,0-0.3,0.1-0.4,0.1c-0.4,0.3-0.5,0.8-0.3,1.3
			c0.3,0.4,0.8,0.5,1.3,0.3c0.4-0.3,0.5-0.8,0.3-1.3C659,97.5,658.6,97.4,658.3,97.5z M669.7,98c-0.4,0-0.6,0.7-0.7,2
			c-0.1,1.8,0.2,2,2.7,2c1.7,0,2.6-0.3,2.3-0.8c-0.3-0.5-1.1-0.8-1.7-0.8c-0.7,0-1.4-0.6-1.7-1.2C670.3,98.4,669.9,98,669.7,98z
			 M144.3,98.1c-1.9,0-4.3,1-4.2,2.2c0.3,3.1-0.1,4.3-1.9,5c-1.4,0.6-1.5,0.8-0.4,0.8c0.8,0,1.9,0.7,2.4,1.6c1,1.7,3.3,1.5,4.9-0.4
			c0.5-0.6,1.5-1.2,2.1-1.2c0.6,0,1.1-0.4,1.1-0.8s1.1-1.4,2.4-2c3-1.6,4.4-1.6,1.7,0c-1.1,0.6-1.7,1.2-1.2,1.2
			c1.4,0,3.2-1.4,3.3-2.8c0.2-1.7-2.4-3.1-5.2-2.8c-1.2,0.1-2.7-0.1-3.2-0.4C145.5,98.2,144.9,98.1,144.3,98.1z M528.2,99.1
			c-0.1,0-0.3,0.1-0.4,0.1c-0.4,0.3-0.5,0.8-0.3,1.3c0.3,0.4,0.8,0.5,1.3,0.3c0.4-0.3,0.5-0.8,0.3-1.3
			C528.9,99.2,528.5,99,528.2,99.1z M202,99.1c-1.9,0.1-4.3,0.6-5,1.2c-0.4,0.4-0.5,2.1-0.2,3.7c0.5,2.5,0.8,2.8,1.7,2
			c0.6-0.5,1-1.3,0.7-1.7c-0.2-0.4,0.2-1,1-1.3c2.1-0.8,4.4-2.9,3.9-3.6C204,99.2,203.1,99.1,202,99.1z M191.1,99.3
			c-0.4,0-1,0.3-1.8,0.7c-1.2,0.6-2.7,1.1-3.3,1.2c-0.9,0-0.9,0.3-0.2,1.2c1.4,1.6-0.3,2.4-2.6,1.3c-2.4-1.3-1.1,0.1,3,3.1
			c1.8,1.3,3.4,2.1,3.6,1.7c0.2-0.4,0.9-0.7,1.8-0.7c2.1,0,2.4-1.7,0.6-3.5c-1.1-1.1-1.3-1.8-0.7-2.4c0.5-0.5,0.7-1.3,0.4-1.9
			C191.7,99.5,191.5,99.3,191.1,99.3z M538.8,99.9c-0.1,0-0.3,0.1-0.4,0.1c-0.4,0.3-0.5,0.8-0.3,1.3c0.3,0.4,0.8,0.5,1.3,0.3
			c0.4-0.3,0.5-0.8,0.3-1.3C539.5,100,539.2,99.9,538.8,99.9z M175.2,100.4c-0.5,0-0.7,0.4-0.6,1c0.1,0.6-0.6,1.1-1.6,1.3
			c-1.3,0.2-1.8,0.8-1.8,2.2c0,2.3-1.4,3.5-2.1,1.7c-0.3-0.7-1.5-1.8-2.8-2.4c-2-1-2.4-1-2.8,0.1c-0.4,1-0.7,1.1-1.8,0.2
			c-1.1-0.9-1.4-0.9-2.1,0.3c-1,1.8-2.5,0.9-1.9-1.2c0.3-0.9,0.2-1.6-0.1-1.6c-0.4,0-4.8,2.4-6.7,3.7c-0.1,0.1,0.2,1.2,0.6,2.4
			c0.8,2.1,1.1,2.2,4.7,1.8c4-0.4,7.1,0.5,6.3,1.9c-0.3,0.4-2.9,0.8-6,0.8c-5.1,0.1-5.3,0.1-2.5,0.9c1.7,0.4,3.6,1.5,4.3,2.3
			c1.6,1.8,6.3,1.5,11.5-0.7c2.8-1.2,3.8-1.2,6.9-0.3c2,0.6,4.2,1.5,4.9,2.1c1.1,0.8,1,0.7-0.1-0.7c-1.5-1.8-1-2.7,1.9-3.8
			c0.7-0.2,0.1-0.5-1.3-0.5c-1.4,0-3.1-0.5-3.9-1.1c-1.8-1.3-3.9-7.3-2.9-8.3C176.3,101.5,176.2,100.4,175.2,100.4z M227,100.5
			c-1.1,0-1.9,0.3-1.9,1c0,1.7,1,2.3,2.8,1.8c0.9-0.2,2.4-0.5,3.3-0.5c1.5,0,1.4-0.2-0.4-1.2C229.5,100.9,228.1,100.5,227,100.5z
			 M212.4,101.2c-2.5,0-6.1,3-6.1,5c0,2.3,2.6,6.4,4.1,6.5c0.7,0,4.9,0.2,9.4,0.3c5.7,0.2,9.2,0.7,11.5,1.7c1.8,0.8,3.9,1.5,4.7,1.6
			c2.5,0.2,3.5,1.8,2.1,3.5c-1,1.3-1,1.4,0.2,0.4c1.2-0.9,1.5-0.8,2.3,0.6c0.5,0.9,0.9,2.1,0.9,2.8c0,0.8,0.6,1.1,1.9,0.8
			c2.4-0.5,3.4,0.9,1.7,2.3c-1,0.8-1.5,0.8-2.7-0.3c-1.3-1.2-1.6-1.2-3.3,0c-1.5,1-1.6,1.5-0.9,2.4c0.5,0.6,0.6,1.2,0.2,1.2
			c-0.4,0-2.4,0.1-4.4,0.2c-2.8,0.1-3.8,0.5-4,1.6c-0.2,1,0.3,1.4,1.6,1.4c1,0,2.4-0.3,3-0.7c1.2-0.8,7.5,1.9,7.5,3.1
			c0,0.4,1,1,2.2,1.3c1.7,0.4,2,0.7,1.1,1.3c-0.8,0.5-0.4,0.7,1.4,0.6c1.4,0,4,0.7,5.7,1.6c4.1,2.1,4.1,2.2,2.3,0.2
			c-1.5-1.6-1.5-1.7,0.1-2.1c2.6-0.7,1.8-3.5-2.2-7.4c-3.5-3.4-3.6-3.6-2-4.8c2.1-1.6,2.4-1.5,5.4,1.3c2.1,1.9,2.9,2.3,3.8,1.5
			c0.6-0.5,0.9-1.3,0.6-1.7c-0.3-0.4,0.3-1,1.3-1.2c1.6-0.4,1.7-0.6,0.4-1.9c-0.7-0.8-1.8-1.3-2.3-1.1c-0.5,0.2-1.7-0.4-2.5-1.3
			c-0.8-0.9-2.5-1.7-3.8-1.7c-2.8,0-4.8-2.8-2.8-3.9c0.7-0.4,1-1,0.6-1.5c-0.7-1-5.3-3.2-6.2-2.9c-0.4,0.1-1.3-0.1-2-0.3
			c-1.1-0.4-1.1-0.6,0.3-1.7c1.3-1,1.4-1.2,0.3-1.2c-0.7,0-1.6,0.4-1.8,0.8c-0.3,0.5-1,0.5-1.9,0.1c-0.8-0.4-1.7-0.8-2.2-0.8
			c-0.5,0-0.8-0.5-0.8-1c0-1.6-2.7-2.9-5.3-2.6c-1.4,0.2-2.3,0.7-2,1.1c0.7,1.2-2,1.8-3.3,0.7c-0.6-0.5-1.5-0.8-2-0.5
			c-1.1,0.7-2.2-1.2-1.9-3.4c0.2-1.5-0.2-1.8-1.7-1.8c-1,0-2.4,0.5-3.1,1c-1.4,1.1-1.8,5.5-0.7,6.9c0.5,0.6,0.4,1.2-0.2,1.6
			c-1.5,0.9-3.2-2-3.1-5.3l0.1-2.9l0.5,3.3c0.4,2.8,0.6,3,1,1.4C216.2,104.3,214.6,101.2,212.4,101.2z M336.9,102.4
			c-0.3,0-0.5,0-0.5,0.2c0,0.2,0.8,0.7,1.8,1.1c2.4,1,2.4,1,1.9,0.1C339.8,103.2,337.9,102.4,336.9,102.4z M332.6,107.3
			c0.4-0.1,0.7,0.1,0.9,0.4c0.3,0.4,0.1,1-0.3,1.3c-0.4,0.3-1,0.1-1.3-0.3c-0.3-0.4-0.1-1,0.3-1.3
			C332.3,107.3,332.5,107.3,332.6,107.3z M755.7,108.1c-0.1,0-0.3,0.1-0.4,0.1c-0.4,0.3-0.5,0.8-0.3,1.3s0.8,0.5,1.3,0.3
			c0.4-0.3,0.5-0.8,0.3-1.3C756.4,108.2,756,108,755.7,108.1z M197.3,108.4c-0.3,0-0.6,0.1-0.8,0.2c-3,1.6-3.1,5.7-0.1,5.7
			c2.2,0,2.5,0.7,1.2,3.3c-1.5,3.1-2.3,3.5-4.3,2.3c-1.2-0.8-2.1-0.8-3.5-0.1c-3.4,1.7-8.7,2-11.7,0.7c-1.6-0.7-2.9-1.6-2.9-2
			c0-0.9-4-1.2-6.1-0.4c-1.1,0.4-1.2,0.7-0.3,1.2c0.6,0.4,1.7,0.7,2.3,0.6c0.8,0,0.7-0.3-0.4-0.7c-1.3-0.6-1.4-0.7-0.3-0.8
			c2.1-0.1,2.7,1.6,0.7,2.1c-1.3,0.3-1.7,1-1.5,2.5c0.3,2.8-1.6,3.3-2.6,0.7c-0.9-2.4-3.7-3.3-8.2-2.7c-3.7,0.5-6-1.2-3.6-2.5
			c1.3-0.7,1.2-0.9-0.4-1.7c-1.4-0.7-2.1-0.7-2.9-0.1c-0.8,0.7-1.8,0.6-3.8-0.5c-3.6-1.9-9-2.9-10.2-1.8c-0.6,0.5-1.8,0.4-3.4-0.5
			c-2.3-1.2-2.7-1.2-5.2,0.3c-6.6,4-9,5-9.8,4.3c-0.5-0.5,0.6-1.6,2.8-2.9c1.9-1.2,3.1-2.2,2.5-2.2c-0.6,0-2.2,0.7-3.6,1.6
			c-2.1,1.3-2.9,1.4-3.9,0.6c-1.1-0.8-1.1-0.8-0.4,0.2c1.1,1.5,2.1,6.2,1.4,6.9c-0.9,0.9-2.7-1.3-2.7-3.3c0-1.1-0.3-2-0.6-2
			c-1.4-0.1-3.2-0.7-6.6-1.9c-2-0.7-4.4-1.3-5.5-1.3c-1,0-2.1-0.3-2.4-0.7c-0.2-0.4-2.7-0.8-5.4-0.8c-2.7,0-5.7-0.4-6.6-0.9
			c-1.1-0.6-2.1-0.6-3.2-0.1c-1.2,0.6-1.8,0.5-2.5-0.4c-0.6-0.7-2.1-1.2-3.3-1.2s-2.5-0.4-2.8-0.9c-0.4-0.6-0.9-0.6-1.6,0.1
			c-0.7,0.6-1.3,0.6-1.6,0.1c-0.3-0.6-1.2-0.4-2.5,0.5c-1.1,0.7-2,1-2,0.6c0-0.4-0.4-0.2-0.8,0.5c-0.4,0.6-1.7,1.3-3,1.5
			c-1.2,0.2-3,1.2-3.8,2.3c-0.9,1.1-1.8,1.9-2,1.6c-0.2-0.2-1.5,0.1-2.8,0.8l-2.4,1.2l2.7,2.3c2.5,2.2,5,3.6,6.7,3.7
			c1.5,0.1,1.4,2-0.2,2.8c-1.1,0.6-2.2,0.5-3.8-0.3c-1.5-0.8-2.7-0.9-3.6-0.4c-0.8,0.4-2.1,1-3,1.3c-1.6,0.5-1.6,0.6,0.2,1.3
			c1.1,0.4,1.6,1.2,1.4,1.8c-0.7,1.8,7,2.5,8.3,0.8c1.2-1.7,2.6-0.8,2.4,1.6c-0.1,1.8-4.2,5-5.5,4.2c-0.3-0.2-1.3,0.4-2.3,1.4
			c-1.2,1.2-1.6,2.3-1.2,3.5c0.8,2.8,3,4.8,4.6,4.4c0.8-0.2,1.8,0.2,2.2,0.9c1,1.7,6.2,3.4,7.7,2.6c1.7-1,2.4,0.4,1.4,2.8
			c-0.9,2.3-4,4.7-8.6,6.6c-1.8,0.7-3,1.5-2.8,1.7c0.4,0.4,4.7-1.4,7.2-2.9c0.7-0.4,2.5-1.5,4.1-2.3c3.3-1.8,8.2-6.6,7.7-7.5
			c-0.2-0.3,0.2-1.1,0.8-1.6c0.7-0.6,1.2-1.5,1.2-2c0-1.6,2.3-3.1,3.9-2.5c1.4,0.5,1.4,0.6,0,1.6c-1.2,0.9-2.1,3.7-1.1,3.7
			c1.8,0,4.6-1.9,4.3-2.8c-0.8-2.1,2.9-3.5,4.2-1.7c1,1.4,4.6,2.7,8.9,3.2c2.3,0.3,6,1.4,8.1,2.5c2.7,1.4,4.3,1.7,4.9,1.2
			c0.7-0.6,1.4-0.2,2.3,1.2c0.7,1.1,1.3,2.3,1.3,2.6c0,0.8,3.6,3.6,4.7,3.6c1.7,0,3.6,5.5,2.5,7.1c-0.4,0.6,0.2,1.3,1.5,1.9
			c2.1,1,2.1,1,0.6,2.8c-0.8,1-1,1.4-0.4,0.8c1.6-1.4,4.6,0.2,3.4,1.7c-1,1.2-0.3,2.1,1.6,2.1c2.1,0,9,6.8,9,8.8
			c0,1.9-1.3,3.1-2,1.8c-1.1-1.8-1.6-0.6-1.7,4.3c0,2.8-0.2,7.3-0.4,10c-0.3,5.1,1.7,11.2,3.6,10.8c0.5-0.1,1,0.6,1,1.6
			c0.2,2.7,3.6,7.7,5.8,8.5c1.1,0.4,1.8,1.2,1.5,1.6c-0.3,0.5,0.1,0.8,1,0.6c1.2-0.2,1.8,0.7,3,4.2c0.8,2.5,2.2,5.3,3.1,6.2
			c1.1,1.2,1.3,1.9,0.7,2.6c-0.6,0.6-0.2,1.5,1.6,3.1c1.4,1.2,2.6,3,2.6,4c0,1.8,4.6,5.9,5.5,5c0.3-0.3-0.1-0.9-0.8-1.4
			c-0.8-0.4-1.4-1.2-1.4-1.7c0-0.5-1.1-2.5-2.5-4.5s-2.5-3.9-2.5-4.2c0-0.3-0.8-2.1-1.8-4c-1.4-2.7-1.6-3.7-0.9-4.4
			c1.1-1.1,3.5,0.3,3.5,2.1c0,0.6,1.7,3.3,3.7,6.1s3.7,5.3,3.7,5.7c0,0.4,1.2,2.1,2.7,3.9c3.6,4.3,4.6,6.3,4.1,8.3
			c-0.6,2.1,2.1,4.2,11,8.6c5.7,2.8,7.1,3.2,8.4,2.5c1.2-0.8,2-0.6,4.5,1.1c3.9,2.6,9.1,5.3,10.4,5.3c2,0,5.6,4.3,5.6,6.8
			c0,2,0.2,2.3,1.2,1.4c1-0.8,1.4-0.7,2.1,0.9c0.6,1.2,1.7,2,3,2.1c1.2,0.1,2.5,0.5,3,0.9c0.6,0.5,1.3,0.3,1.9-0.8
			c2.2-3.5,5.9,1.7,5.8,8.2c-0.1,2.9-0.6,4.4-2.8,7c-1.5,1.8-3.2,5.1-3.7,7.3c-0.9,3.6-0.9,4.1,0.5,4.8c1.4,0.8,1.4,0.9-0.3,2.1
			l-1.7,1.3l2.7,6.1c1.5,3.4,3.6,8.9,4.7,12.2c1.7,5.1,2.4,6.4,5.1,8.2c1.7,1.2,4.4,3.3,6.1,4.8l2.9,2.7l-1,14.1
			c-0.6,7.8-1.1,16.1-1.2,18.6c-0.1,2.9-1,6-2.5,8.9c-1.6,3.2-2.1,5.1-1.8,6.9c0.3,1.4,0.1,3.7-0.5,5.2c-0.8,2.1-0.8,3.1,0,4.6
			c1.2,2.2,0.8,10.9-0.5,12.2c-0.7,0.7-1.1,0.6-1.5-0.5c-0.4-1.1-0.7-1.2-1.3-0.4c-0.9,1.4-0.9,2.6-0.1,2c0.9-0.6,5.3,4.2,4.7,5.2
			c-0.3,0.4-1,0.6-1.6,0.4c-0.9-0.3-1,0.4-0.8,3.5c0.1,2.2-0.2,4.4-0.7,5c-0.7,0.9-0.7,1.1,0.3,0.9c1.7-0.4,5.8,2.6,5.3,3.9
			c-0.8,2,0.9,1.1,1.8-0.9c0.5-1.1,1.3-2,1.8-2c0.5,0,0.8-0.9,0.8-1.9s0.7-2.6,1.6-3.4c0.9-0.8,1.5-1.7,1.3-1.9
			c-0.2-0.2,0.8-1.7,2.1-3.3c2.5-2.8,2.5-2.9,0.8-3.5c-3.3-1.2-3-7.3,0.4-7.3c0.7,0,1.1-0.9,1.1-2.5c0-1.9,0.5-2.6,1.7-3
			c1.4-0.4,1.5-0.6,0.5-1.4c-0.7-0.5-1.3-1.7-1.5-2.6c-0.2-1.3,0.2-1.6,2.1-1.6c2.3,0,3.2-0.8,4.1-3.9c0.3-1,1.7-1.6,4.6-1.9
			c6.7-0.9,8.3-3.8,4.5-8.3c-2.5-2.9-1.9-3.8,1.2-2c2.2,1.2,2.5,1.2,5.2,0c2.8-1.4,4.9-4.2,9.2-12.8c1.8-3.5,2-4.7,1.4-6.2
			c-0.5-1-0.6-2.2-0.3-2.7c0.6-1,6.4-5.1,7.2-5.1c0.3,0,0.9-0.5,1.4-1.2c0.5-0.7,2.4-1.3,4.1-1.5c3.1-0.3,3.3-0.5,5.5-5.5
			c1.8-4.3,2.3-6.5,2.3-11.9c0-4.7,0.4-6.9,1.1-7.4c0.6-0.4,2.4-2.6,4.1-5.1c3.9-5.8,4.2-10.1,0.6-11.9c-1.3-0.7-2.9-1.9-3.5-2.8
			c-0.8-1.1-2.4-1.6-6.1-1.9c-4.3-0.3-5.4-0.7-7.6-3c-3.2-3.2-4.6-3.3-6.8-0.5c-1.2,1.5-2.3,2-3.8,1.8c-2.6-0.3-2.6-1.7,0.1-2.3
			c1-0.2,2-1.1,2.1-1.8c0.4-2.1-1.1-1.7-4.2,1c-1.5,1.3-3,2.2-3.3,1.9c-0.9-0.9,4.4-7.7,5.4-7.1c0.5,0.3,0.2-0.3-0.7-1.3
			c-0.9-1-1.6-2.1-1.5-2.4c1-3-4.4-7.5-8.9-7.5c-2.3,0-3.5-0.7-5.9-3.1c-1.6-1.7-3.9-3.9-5-5c-1.1-1.1-1.8-2.3-1.5-2.8
			c0.3-0.5-0.9-0.6-3.7-0.3c-2.6,0.3-4.3,0.2-4.7-0.3c-0.3-0.5-1-0.8-1.5-0.7c-1.6,0.3-5.5-1.6-5.5-2.7c0-0.6-0.4-0.2-0.8,0.8
			c-0.4,1-1.1,1.8-1.5,1.8c-0.4,0-0.6,0.7-0.4,1.5c0.6,2.2-1.1,2.9-2.2,0.9c-0.7-1.3-0.6-2.1,0.4-3.7c1.7-2.6,0.4-2.6-2,0
			c-1,1.1-2.4,1.8-3,1.5c-1-0.4-1.4,0.2-3.2,5.4c-0.3,0.9-0.9,0.7-2.5-0.8c-1.8-1.7-2.3-1.8-5.3-1c-3.1,0.8-3.4,0.8-5.4-1.6
			c-1.9-2.3-2.1-2.9-1.6-7.6c0.5-5,0.5-5.1-1.7-5.7c-1.2-0.4-3.6-0.7-5.1-0.7c-2.7-0.1-2.8-0.2-2.6-2.5c0.1-1.3,0.5-2.8,0.9-3.3
			c0.4-0.5,0.9-2.4,1.2-4.3c0.5-3.1,0.4-3.5-1-3.5c-3.6,0-5.7,1.5-6,4.2c-0.2,2.5-0.5,2.7-3.9,3.3c-4.5,0.8-6.7-0.5-9-5.2
			c-1.6-3.3-2.3-10.4-1.1-11.6c0.3-0.3,0.5-1.8,0.4-3.3c-0.2-2.4,0.2-3,2.9-4.6c3.7-2.3,4.6-2.5,7.5-1.6c1.2,0.4,3.4,0.9,5,1.2
			c2.5,0.4,2.6,0.4,1.7-0.8c-0.9-1.1-0.9-1.5,0.5-2.5c1-0.8,2.3-1,3.7-0.6c1.1,0.3,3,0.5,4.2,0.5c2.5-0.1,4.6,2.5,5.1,6.1
			c0.3,2.8,2.2,6,3.6,6c1.4,0,1.3-1.1-0.6-7.8c-0.9-3.1-1.6-6.2-1.6-6.8s2-3.1,4.4-5.5c2.4-2.4,4.2-4.6,4-4.8
			c-0.2-0.2,0.2-0.6,0.9-0.9c0.7-0.3,1.2-0.8,0.9-1.2c-0.2-0.4,0-0.9,0.4-1.2c0.6-0.3,0.5-1-0.1-2.1c-1-1.9-0.7-6,0.4-6
			c0.4,0,1,0.9,1.3,2c0.5,1.7,0.6,1.7,0.7,0.4c0.1-2.5,4-7.7,5.8-7.7c3.1,0,4.1-0.8,3.1-2.5c-0.7-1.2-0.6-1.9,0.5-3.6
			c0.8-1.2,2-2.1,2.6-2.1s3-0.9,5.1-1.9c2.6-1.3,4.4-1.7,5.5-1.3c0.9,0.4,1.2,0.7,0.5,0.7c-1.6,0.1-4.2,2.5-4.2,4
			c0,1,0.4,0.9,1.8-0.4c1-0.9,3-2.1,4.4-2.7s2.8-1.6,3.1-2.2c0.3-0.7,0.8-1,1.3-0.7c0.5,0.3,0.8,0.2,0.8-0.2c0-1.7-1-1.5-2.9,0.4
			c-1.6,1.6-2.3,1.8-3.2,1c-0.7-0.5-0.9-1.4-0.6-1.9c0.4-0.7,0.2-0.7-0.6,0c-0.9,0.7-1.6,0.5-3.4-1.3c-2.3-2.4-2.2-3.3,0.3-3.3
			c0.8,0,1.5-0.6,1.5-1.3c0-2.1-5.5-0.8-8.3,1.9c-1.6,1.6-2.6,2-3.2,1.4c-1.2-1.2,5.8-7.3,9.2-8c1.4-0.3,4.4-0.5,6.6-0.5
			c2.2,0,4.8-0.4,5.8-1c1-0.5,2.9-1.2,4.2-1.5c2.1-0.4,2.5-0.9,2.5-3.2c0-3.6-1-4.3-4.7-3c-2.1,0.7-3.3,0.8-3.6,0.2
			c-0.7-1.1,1.9-3.1,4.2-3.1c1.2,0,1.3-0.2,0.5-0.5c-0.7-0.3-2.2-1.1-3.3-2c-1.2-0.8-2.3-1.3-2.6-1.1c-0.2,0.2-1-0.5-1.8-1.7
			c-0.7-1.1-1.1-2.1-0.8-2.1s-0.3-0.9-1.3-1.9c-1-1.1-2-3-2.2-4.2c-0.7-3.7-1.1-3.9-3.6-1.2c-1.4,1.5-2.8,2.3-3.6,2
			c-0.7-0.3-1.5-0.1-1.8,0.5c-0.4,0.6-1.1,0.3-2.3-0.9c-1.9-2.1-2.4-3.8-1.3-4.4c1.2-0.7,0.9-2.8-0.4-2.8c-0.6,0-2.2-1-3.5-2.2
			c-1.8-1.7-3.2-2.3-6.3-2.4c-3.7-0.1-4,0.1-5,2.5c-0.7,1.7-0.8,3.1-0.3,4c0.5,1,0.4,1.9-0.2,2.7c-0.5,0.6-0.7,1.2-0.4,1.2
			c0.3,0,0.2,0.5-0.3,1.1c-0.7,0.8-0.5,1.6,0.7,3.2c2,2.6,2.1,5.3,0.2,8c-0.9,1.3-1.5,3.7-1.5,6.9c-0.1,3.6-0.5,5.1-1.5,5.9
			c-1.2,0.9-1.9,0.7-4.7-2c-3-2.8-3.2-3.3-2.9-6.4l0.4-3.4l-3.6-0.4c-2.4-0.3-5.2-1.4-8-3.4c-2.4-1.7-4.8-2.8-5.2-2.5
			c-1,0.6-2.1-1-2.1-3.2c0-1.2-0.5-1.6-1.9-1.4c-1.3,0.2-2.1-0.3-2.6-1.8c-1.1-3-0.2-5,5.1-10.5c1.2-1.3,2.1-2.7,1.8-3.1
			c-0.6-1,2.5-2.5,3.9-2c0.6,0.2,2-0.3,3.1-1.2c2.1-1.8,2.3-1.6-2.5-3.1c-2.2-0.7,0.4-2.1,3.3-1.8c2.5,0.2,2.8,0.5,3,3.3
			c0.2,2.2-0.1,3.2-1,3.6c-1,0.4-0.8,0.8,1,1.7c2.2,1.1,2.4,1.1,3.8-0.9c1.4-1.9,1.7-2,3.4-0.8c1,0.7,2.3,1,2.7,0.7
			c1.3-0.8-2.7-4.5-5.5-5.1c-1.4-0.3-3.1-1.4-3.8-2.5c-1.3-2-1.2-2.2,1.8-2c1.9,0.2,6.8-2.1,6.8-3.1c0-0.4-0.5-1.4-1.2-2.2
			c-0.8-1.1-0.9-1.9-0.3-2.6c1.2-1.4-1.5-3.4-4.5-3.4c-1.9,0-2.2,0.2-1.5,1.5c0.6,1.1,0.3,2.1-1.4,4.2c-2,2.5-2.2,2.6-3.2,1.2
			c-0.6-0.8-1.1-2.3-1.1-3.3c0-1-0.5-2.2-1.2-2.8c-0.9-0.8-1.4-0.6-2.5,1.1c-1.5,2.3-2.8,2.1-2.8-0.3c0-0.8-0.8-1.7-1.8-2
			c-1.4-0.4-1.6-0.7-0.8-1.6C202.5,111.8,199.5,108.4,197.3,108.4L197.3,108.4z M215.7,108.6c-0.2,0-0.4,0.4-0.4,0.8
			s0.4,0.8,0.9,0.8c0.5,0,0.6-0.4,0.4-0.8C216.2,108.9,215.9,108.6,215.7,108.6z M748.9,108.9c-1.6,0.1-3.7,0.7-4.6,1.5
			c-0.6,0.6,3.6,0.6,6.8-0.1c0.1,0,0-0.4-0.3-0.9C750.6,109,749.9,108.9,748.9,108.9z M129.7,109.7c-0.1,0-0.3,0.1-0.4,0.1
			c-0.4,0.3-0.5,0.8-0.3,1.3c0.3,0.4,0.8,0.5,1.3,0.3c0.4-0.3,0.5-0.8,0.3-1.3C130.4,109.8,130,109.7,129.7,109.7z M371.9,109.7
			c-0.1,0-0.3,0.1-0.4,0.1c-0.4,0.3-0.5,0.8-0.3,1.3c0.3,0.4,0.8,0.5,1.3,0.3c0.4-0.3,0.5-0.8,0.3-1.3
			C372.6,109.8,372.2,109.7,371.9,109.7z M369.4,111.4c-0.1,0-0.3,0.1-0.4,0.1c-0.4,0.3-0.5,0.8-0.3,1.3c0.3,0.4,0.8,0.5,1.3,0.3
			c0.4-0.3,0.5-0.8,0.3-1.3C370.1,111.5,369.8,111.3,369.4,111.4z M505.4,111.6c-0.3,0-0.6,0.1-0.8,0.3c-0.6,0.6-0.4,1.2,0.7,2
			c1.9,1.4,2.6,1.5,3.3,0.4C509.2,113.4,506.9,111.7,505.4,111.6z M424.3,112.2c-0.1,0-0.3,0.1-0.4,0.1c-0.4,0.3-0.5,0.8-0.3,1.3
			c0.3,0.4,0.8,0.5,1.3,0.3c0.4-0.3,0.5-0.8,0.3-1.3C424.9,112.3,424.6,112.1,424.3,112.2z M190.2,113.9c-0.4,0-0.8,0.4-1.4,1.1
			c-1.3,1.4-1.3,1.6-0.1,2c0.7,0.3,1.1,0.9,0.8,1.3c-0.3,0.5,0.5,0.5,2.1,0c1.4-0.4,2.9-1.2,3.3-1.8c0.5-0.8,0.7-0.8,0.7,0
			c0,0.6-0.6,1.3-1.2,1.5c-0.7,0.3-1,0.8-0.8,1.2c0.8,1.3,1.9,0.8,3.1-1.8l1.3-2.6l-2.6,0.5c-1.8,0.4-3,0.1-3.9-0.7
			C191,114.2,190.6,113.9,190.2,113.9z M486.4,114.5c-1.2,0-3,1.9-2.4,3c0.4,0.6,1,0.6,2.1,0.1c1.8-0.9,2-2.1,0.7-2.9
			C486.8,114.6,486.6,114.5,486.4,114.5z M279.5,115.1c-0.7,0-1,0.4-0.8,0.8c0.3,0.5,0.9,0.8,1.3,0.8c0.4,0,0.8-0.4,0.8-0.8
			C280.8,115.5,280.2,115.1,279.5,115.1z M227,115.5c-0.1,0-0.3,0.1-0.4,0.1c-0.4,0.3-0.5,0.8-0.3,1.3c0.3,0.4,0.8,0.5,1.3,0.3
			c0.4-0.3,0.5-0.8,0.3-1.3C227.7,115.5,227.4,115.4,227,115.5z M122.4,116.8c-0.5,0-1.4,0.4-2,0.8c-0.7,0.4-0.9,0.8-0.4,0.8
			s1.4-0.4,2-0.8C122.7,117.1,122.9,116.8,122.4,116.8z M416.9,117.1c-0.1,0-0.3,0.1-0.4,0.1c-0.4,0.3-0.5,0.8-0.3,1.3
			c0.3,0.4,0.8,0.5,1.3,0.3c0.4-0.3,0.5-0.8,0.3-1.3C417.6,117.2,417.2,117,416.9,117.1z M227.9,118.7c-0.1,0-0.3,0.1-0.4,0.1
			c-0.4,0.3-0.5,0.8-0.3,1.3c0.3,0.4,0.8,0.5,1.3,0.3c0.4-0.3,0.5-0.8,0.3-1.3C228.6,118.8,228.2,118.7,227.9,118.7z M413.6,118.7
			c-0.1,0-0.3,0.1-0.4,0.1c-0.4,0.3-0.5,0.8-0.3,1.3c0.3,0.4,0.8,0.5,1.3,0.3c0.4-0.3,0.5-0.8,0.3-1.3
			C414.3,118.8,414,118.7,413.6,118.7z M233.9,120.1c-0.1,0-0.2,0-0.3,0.1c-2.1,0.4-2.4,2.3-0.4,2.3c1,0,1.7-0.5,1.7-1.3
			C234.9,120.5,234.5,120.1,233.9,120.1z M243.9,124.9c-1,0-1.5,0.4-1.2,0.8c0.3,0.5,0.8,0.8,1.2,0.8c0.4,0,0.9-0.4,1.2-0.8
			C245.4,125.3,244.9,124.9,243.9,124.9z M355.6,126c-0.6,0-1.4,0.1-2.6,0.3c-2.1,0.3-4.5,0.5-5.3,0.5c-0.8-0.1-1.3,0.2-1,0.6
			c0.6,1-3.3,3.3-5.9,3.4l-2.3,0.1l2.5,0.5c1.4,0.3,2.3,0.9,2,1.3c-0.5,0.8,2.1,2,4.6,2.1c1,0,3.7-0.7,6.1-1.7
			c4.9-2,6.1-3.2,4.4-4.2c-0.7-0.4-1.2-1.2-1.2-1.9C356.9,126.3,356.6,126,355.6,126z M342.4,126.6c-0.8,0-1.9,0.3-2.7,0.8
			c-1,0.6-0.8,0.8,1,0.8c1.2,0,2.4-0.4,2.7-0.8C343.7,126.9,343.2,126.6,342.4,126.6z M406.2,132.6c-0.1,0-0.3,0.1-0.4,0.1
			c-0.4,0.3-0.5,0.8-0.3,1.3c0.3,0.4,0.8,0.5,1.3,0.3c0.4-0.3,0.5-0.8,0.3-1.3C406.9,132.7,406.6,132.6,406.2,132.6z M248.6,135
			c1.1,0,4.2,1.3,4.7,2.2c0.3,0.5,0.2,0.9-0.1,0.8c-1.1-0.1-5.3-2.5-4.9-2.9C248.3,135,248.4,135,248.6,135z M46,135.1
			c-0.2,0-0.4,0-0.6,0c-0.2,0-0.4,0.1-0.5,0.2c-0.4,0.2-0.3,1,0.3,1.6c1.1,1.3,5.4,1.2,5-0.1C50,136.1,47.6,135.2,46,135.1z
			 M232.8,135.1c-0.1,0-0.3,0.1-0.4,0.1c-0.4,0.3-0.5,0.8-0.3,1.3c0.3,0.4,0.8,0.5,1.3,0.3s0.5-0.8,0.3-1.3
			C233.5,135.2,233.1,135,232.8,135.1z M229.5,135.9c-0.1,0-0.3,0.1-0.4,0.1c-0.4,0.3-0.5,0.8-0.3,1.3c0.3,0.4,0.8,0.5,1.3,0.3
			c0.4-0.3,0.5-0.8,0.3-1.3C230.2,136,229.8,135.9,229.5,135.9z M226.4,138.3c-0.2,0-0.4,0.2-0.6,0.4c-0.5,0.5-0.7,1.5-0.4,2.3
			c0.4,1,0.8,1.2,1.4,0.5c0.5-0.5,0.7-1.5,0.4-2.3C227,138.5,226.8,138.2,226.4,138.3z M220.2,138.3c-1.1,0.1-2.5,1.3-1.9,2.3
			c0.3,0.4,1.2,0.3,2.1-0.2c1.2-0.6,1.4-1.1,0.8-1.8C220.9,138.4,220.5,138.3,220.2,138.3z M372.7,139.2c-0.6,0.1-1.2,0.9-0.8,1.8
			c0.2,0.6,0.1,1.3-0.4,1.6c-0.4,0.3-0.6,0.9-0.3,1.3c0.3,0.4,0.8,0.5,1.3,0.3c0.4-0.3,0.6-0.7,0.4-0.9c-0.3-0.3-0.1-1,0.4-1.5
			c0.5-0.6,0.7-1.4,0.4-1.9c-0.2-0.3-0.4-0.5-0.7-0.5C372.9,139.2,372.8,139.2,372.7,139.2z M448.6,142.1c0.1,0,0.3,0,0.5,0
			c1,0.1,2.2,0.7,2.7,1.6c1.1,2.1,1.1,2.8-0.3,2.3c-0.6-0.2-1.4-0.1-1.8,0.3c-0.4,0.4-1.1-0.1-1.6-1.3c-0.5-1.1-0.7-2.2-0.5-2.4
			C447.8,142.3,448.2,142.1,448.6,142.1z M384.2,144.2c-0.8,0-1.3,1.1-0.6,2.1c0.4,0.6,0.8,0.6,1.4,0c0.6-0.6,0.6-1.1,0-1.8
			C384.7,144.2,384.4,144.1,384.2,144.2z M249.9,144.9c-0.1,0-0.3,0.1-0.4,0.1c-0.4,0.3-0.5,0.8-0.3,1.3s0.8,0.5,1.3,0.3
			c0.4-0.3,0.5-0.8,0.3-1.3C250.6,145,250.3,144.9,249.9,144.9z M426.7,144.9c-0.1,0-0.3,0.1-0.4,0.1c-0.4,0.3-0.5,0.8-0.3,1.3
			c0.3,0.4,0.8,0.5,1.3,0.3c0.4-0.3,0.5-0.8,0.3-1.3C427.4,145,427.1,144.9,426.7,144.9z M53.6,145.7c-0.1,0-0.3,0.1-0.4,0.1
			c-0.4,0.3-0.5,0.8-0.3,1.3c0.3,0.4,0.8,0.5,1.3,0.3c0.4-0.3,0.5-0.8,0.3-1.3C54.3,145.8,53.9,145.7,53.6,145.7z M380.9,149
			c-0.4,0.1-1.2,0.7-2.5,1.9c-2.6,2.4-3.9,5.6-2.6,6.4c0.5,0.3,0.5,0.9,0.1,1.4c-0.8,1.1,1.2,3.4,3,3.4c0.6,0,1.2,1,1.4,2.3
			c0.2,1.7-0.2,2.5-1.6,3c-1,0.4-1.5,0.7-1.1,0.8c0.4,0,0.3,0.6-0.3,1.3c-0.8,1-0.7,1.2,0.7,1.2c2.8,0,2.9,1.7,0.2,2.7
			c-3.5,1.3-3.2,2.3,0.3,1.3c1.6-0.4,3.3-0.7,3.9-0.7c3.8,0.5,5.9-0.5,6.7-3.1c0.4-1.3,0.2-1.8-0.7-1.8c-1.4,0-2.1-0.9-2.6-3.4
			c-0.3-1.8-3.1-5.4-5.1-6.6c-0.8-0.5-0.7-1.1,0.4-2.8c1.4-2.1,1.4-2.2-0.4-1.7c-2.6,0.7-3.1-0.6-1.1-3.2
			C381,149.7,381.4,148.9,380.9,149z M62.6,150.6c-0.1,0-0.3,0.1-0.4,0.1c-0.4,0.3-0.5,0.8-0.3,1.3s0.8,0.5,1.3,0.3
			c0.4-0.3,0.5-0.8,0.3-1.3C63.3,150.7,62.9,150.6,62.6,150.6z M372.7,150.6c-0.1,0-0.3,0.1-0.4,0.1c-0.4,0.3-0.5,0.8-0.3,1.3
			c0.3,0.4,0.8,0.5,1.3,0.3c0.4-0.3,0.5-0.8,0.3-1.3C373.4,150.7,373,150.6,372.7,150.6z M431.6,150.6c-0.1,0-0.3,0.1-0.4,0.1
			c-0.4,0.3-0.5,0.8-0.3,1.3c0.3,0.4,0.8,0.5,1.3,0.3c0.4-0.3,0.5-0.8,0.3-1.3C432.3,150.7,432,150.6,431.6,150.6z M82.7,151.7
			c-1.2,0.1-4.9,2.5-4.9,3.5c0,0.3,0.3,0.9,0.6,1.2c0.7,0.7,5.2-3.6,4.7-4.5l0.1-0.1l-0.1,0.1C82.9,151.7,82.9,151.7,82.7,151.7z
			 M114.1,153.1c-0.1,0-0.3,0.1-0.4,0.1c-0.4,0.3-0.5,0.8-0.3,1.3c0.3,0.4,0.8,0.5,1.3,0.3c0.4-0.3,0.5-0.8,0.3-1.3
			C114.8,153.2,114.5,153,114.1,153.1z M372.7,153.9c-0.1,0-0.3,0.1-0.4,0.1c-0.4,0.3-0.5,0.8-0.3,1.3c0.3,0.4,0.8,0.5,1.3,0.3
			c0.4-0.3,0.5-0.8,0.3-1.3C373.4,154,373,153.9,372.7,153.9z M423.4,154c-0.8,0-1.3,1.1-0.6,2.1c0.4,0.6,0.8,0.6,1.4,0
			c0.6-0.6,0.6-1.1,0-1.8C424,154.1,423.7,154,423.4,154z M47,156.4c-0.1,0-0.3,0.1-0.4,0.1c-0.4,0.3-0.5,0.8-0.3,1.3
			c0.3,0.4,0.8,0.5,1.3,0.3c0.4-0.3,0.5-0.8,0.3-1.3C47.7,156.5,47.4,156.3,47,156.4z M77.3,157.2c-0.1,0-0.3,0.1-0.4,0.1
			c-0.4,0.3-0.5,0.8-0.3,1.3c0.3,0.4,0.8,0.5,1.3,0.3c0.4-0.3,0.5-0.8,0.3-1.3C78,157.3,77.6,157.1,77.3,157.2z M226.2,158
			c-0.1,0-0.3,0.1-0.4,0.1c-0.4,0.3-0.5,0.8-0.3,1.3c0.3,0.4,0.8,0.5,1.3,0.3c0.4-0.3,0.5-0.8,0.3-1.3
			C226.9,158.1,226.6,158,226.2,158z M120.1,159.1c-0.1,0-0.1,0-0.2,0c-0.8,0.2-1.1,1.8-0.5,2.9c0.2,0.3,0.6,0.4,1,0.2
			C121.2,161.7,120.9,159.2,120.1,159.1z M75.6,159.6c-0.1,0-0.3,0.1-0.4,0.1c-0.4,0.3-0.5,0.8-0.3,1.3c0.3,0.4,0.8,0.5,1.3,0.3
			c0.4-0.3,0.5-0.8,0.3-1.3C76.3,159.7,76,159.6,75.6,159.6z M718,159.6c-0.1,0-0.3,0.1-0.4,0.1c-0.4,0.3-0.5,0.8-0.3,1.3
			c0.3,0.4,0.8,0.5,1.3,0.3c0.4-0.3,0.5-0.8,0.3-1.3C718.7,159.7,718.4,159.6,718,159.6z M409.5,160.5c-0.8,0-1.3,1.1-0.6,2.1
			c0.4,0.6,0.8,0.6,1.4,0s0.6-1.1,0-1.8C410,160.6,409.8,160.5,409.5,160.5z M416.1,161.3c-0.1,0-0.3,0.1-0.4,0.1
			c-0.4,0.3-0.5,0.8-0.3,1.3c0.3,0.4,0.8,0.5,1.3,0.3c0.4-0.3,0.5-0.8,0.3-1.3C416.8,161.4,416.4,161.2,416.1,161.3z M371.1,161.5
			c-0.4,0-0.8,0.3-1.1,0.6c-0.5,0.6-0.6,1.3-0.3,1.6s-0.3,0.8-1.3,1c-1.4,0.4-1.6,0.7-0.9,1.5c0.6,0.7,0.6,1.2,0,1.6
			c-0.8,0.5-1.3,3.7-0.6,3.7c0.1,0,1.7-0.7,3.6-1.6c2.8-1.3,3.4-2.1,3.7-4.4c0.3-2.3,0-3-1.5-3.7
			C372.1,161.6,371.5,161.4,371.1,161.5z M58.5,162.1c-0.1,0-0.3,0.1-0.4,0.1c-0.4,0.3-0.5,0.8-0.3,1.3s0.8,0.5,1.3,0.3
			c0.4-0.3,0.5-0.8,0.3-1.3C59.2,162.2,58.8,162,58.5,162.1z M672.8,162.6c-0.5,0-0.8,0.3-0.5,0.7c0.2,0.4-0.2,1.9-0.9,3.3
			c-1.1,2.2-1.1,3-0.2,5.1c0.6,1.5,1,5.1,0.9,8.8c-0.2,5.2,0,6.3,1.1,6.3c0.7,0,1.3-0.4,1.3-1c0-0.6-0.4-1.3-0.8-1.6
			c-0.9-0.6-1.1-4.7-0.3-5.6c0.3-0.3,1-0.1,1.6,0.4c1.2,1,1.5-0.1,0.4-1.4c-1.3-1.5-2.7-9.3-2.1-12.1
			C673.6,163.5,673.4,162.6,672.8,162.6z M722.1,162.9c-0.1,0-0.3,0.1-0.4,0.1c-0.4,0.3-0.5,0.8-0.3,1.3c0.3,0.4,0.8,0.5,1.3,0.3
			c0.4-0.3,0.5-0.8,0.3-1.3C722.8,163,722.5,162.9,722.1,162.9z M53.2,163.6c-0.9,0-1.6,0.7-1.2,1.5c0.3,0.4,0.8,0.8,1.2,0.8
			c1.1,0,1.8-1.5,0.8-2C53.8,163.6,53.5,163.6,53.2,163.6z M119.8,163.8c-0.8,0-1.3,1.1-0.6,2.1c0.4,0.6,0.8,0.6,1.4,0
			c0.6-0.6,0.6-1.1,0-1.8C120.4,163.9,120.1,163.8,119.8,163.8z M49.5,166.2c-0.1,0-0.3,0.1-0.4,0.1c-0.4,0.3-0.5,0.8-0.3,1.3
			c0.3,0.4,0.8,0.5,1.3,0.3c0.4-0.3,0.5-0.8,0.3-1.3C50.2,166.3,49.8,166.1,49.5,166.2z M731.9,167c-0.1,0-0.3,0.1-0.4,0.1
			c-0.4,0.3-0.5,0.8-0.3,1.3c0.3,0.4,0.8,0.5,1.3,0.3c0.4-0.3,0.5-0.8,0.3-1.3C732.6,167.1,732.3,167,731.9,167z M222.3,167
			c-0.2,0-0.4,0.1-0.7,0.3c-0.6,0.6-0.6,1.2,0.2,2.1c1.5,1.8,2.7,0.7,1.6-1.3C223,167.4,222.7,167.1,222.3,167z M120.9,168.4
			C120.8,168.4,120.8,168.4,120.9,168.4c-0.3,0.2,0,1.6,0.5,3c0.5,1.5,1.1,2.3,1.3,1.9c0.1-0.4-0.2-1.8-0.6-3
			C121.6,169.3,121.1,168.5,120.9,168.4z M697.6,173.6c-0.8,0-1.3,1.1-0.6,2.1c0.4,0.6,0.8,0.6,1.4,0c0.6-0.6,0.6-1.1,0-1.8
			C698.1,173.7,697.8,173.6,697.6,173.6z M131,175.3c-0.3,0-0.5,0.2-0.3,0.4c0.3,0.4,1.2,0.7,2,0.7c0.9,0,1.9,0.7,2.4,1.6
			c0.5,0.9,1.3,1.6,1.7,1.6c1.4,0-2.8-3.9-4.8-4.3c-0.3-0.1-0.5-0.1-0.7-0.1C131.2,175.3,131.1,175.3,131,175.3z M274.2,175.4
			c-0.8,0.1-2.3,1-4,2.6c-3,2.8-3.2,3.2-2.3,4.6c1.1,1.5,2.7,1.5,6.7-0.1c1-0.4,1.3-0.3,0.8,0.4c-0.3,0.5-0.4,1.6-0.1,2.4
			c0.5,1.3,0.6,1.3,1.6-0.1c0.7-1,1.3-1.2,1.6-0.6c0.3,0.5,0.9,0.6,1.3,0.4c0.4-0.3,0.5-0.8,0.3-1.3c-0.3-0.4-0.9-0.5-1.3-0.2
			c-0.5,0.3-0.7-0.1-0.3-1.1c0.7-2.3-2.1-4.7-4.6-3.9c-1.9,0.6-1.9,0.6-0.4-1.1C275,176,275,175.3,274.2,175.4z M208.8,176.5
			c0.5,0,0.8,0.4,0.8,0.8s-0.4,0.8-0.8,0.8c-0.5,0-0.8-0.4-0.8-0.8S208.3,176.5,208.8,176.5z M259.5,177.6c-0.2,0-0.5,0.1-0.7,0.2
			c-1.2,0.5-1.2,0.6,0.2,1.7c1.8,1.4,3.4,1.5,4.1,0.4C263.7,178.9,261.2,177.5,259.5,177.6z M695.9,177.6c-0.1,0-0.3,0.1-0.4,0.1
			c-0.4,0.3-0.5,0.8-0.3,1.3c0.3,0.4,0.8,0.5,1.3,0.3s0.5-0.8,0.3-1.3C696.6,177.7,696.3,177.6,695.9,177.6z M693.5,180.1
			c-0.1,0-0.3,0.1-0.4,0.1c-0.4,0.3-0.5,0.8-0.3,1.3c0.3,0.4,0.8,0.5,1.3,0.3c0.4-0.3,0.5-0.8,0.3-1.3
			C694.2,180.2,693.8,180.1,693.5,180.1z M210.7,181c0.4,0,0.9,0.2,1.6,0.5c1.2,0.5,2.7,2.2,3.4,3.6c1.1,2.2,1.9,2.8,5.1,3.4
			c2.1,0.4,4,1.2,4.2,1.7c0.2,0.6-0.1,0.9-0.7,0.8c-0.6-0.1-1.3,0.8-1.5,2.2c-0.5,2.5-0.5,2.4-1.5,0.6c-0.6-1-1.3-1.7-1.7-1.4
			c-0.4,0.2-0.5-0.3-0.3-1.1c0.3-1-0.2-1.9-1.2-2.5c-1.4-0.7-1.8-0.5-3.1,1.4c-0.8,1.2-1.7,3.9-1.9,5.9c-0.3,2.3-0.7,3.3-1.1,2.6
			c-0.4-0.6-0.6-2-0.4-3.3c0.1-1.2,0-2.6-0.3-3c-0.7-1.2,1.1-3.4,3-3.8c4.7-0.9-2.6-4-8-3.5c-3,0.3-3.2,0.2-1.4-0.5
			c1.1-0.5,2.8-1.6,3.8-2.5C209.4,181.3,209.9,180.9,210.7,181L210.7,181z M232.5,183.3c0.3,0,0.6,0,0.9,0.2c0.9,0.6,0.3,2-0.8,2
			c-0.4,0-0.9-0.3-1.2-0.8C230.8,184,231.6,183.3,232.5,183.3z M691,183.4c-0.1,0-0.3,0.1-0.4,0.1c-0.4,0.3-0.5,0.8-0.3,1.3
			c0.3,0.4,0.8,0.5,1.3,0.3s0.5-0.8,0.3-1.3C691.7,183.5,691.4,183.3,691,183.4z M272.9,184.2c-0.1,0-0.3,0.1-0.4,0.1
			c-0.4,0.3-0.5,0.8-0.3,1.3s0.8,0.5,1.3,0.3c0.4-0.3,0.5-0.8,0.3-1.3C273.6,184.3,273.2,184.1,272.9,184.2z M491.1,185.9
			c1.3,0,1.6,0.4,1.6,1.9c0,1.4-0.4,1.8-1.2,1.5c-0.6-0.2-1.6,0.1-2.1,0.7c-0.5,0.6-0.7,1.2-0.4,1.2c0.3,0,0.2,0.5-0.3,1.1
			c-0.7,0.9-0.5,1.6,1,3.2c1.1,1.2,1.8,2.3,1.5,2.6c-0.2,0.2-0.2,1.1,0.1,1.9c0.5,1.4,0.6,1.4,1.6,0.1c0.9-1.3,1.1-1.3,2,0.2
			c0.8,1.4,0.8,1.6-0.6,1.6c-2.2,0-2.8,1.4-1.1,2.4c0.8,0.5,1.2,0.9,0.9,0.9c-0.3,0-0.2,1.5,0.1,3.2c0.5,2.8,0.4,3.3-1.2,3.7
			c-3.2,0.9-5.1,0.5-6.7-1.2c-1.5-1.6-1.5-1.9-0.2-5.4c1.1-3.1,1.1-3.8,0.2-4.1c-1.5-0.6-4.6-9.1-4-11c0.6-1.9,4.8-4.2,8-4.4
			C490.7,185.9,490.9,185.9,491.1,185.9z M226.2,186.7c0.4-0.1,0.7,0.1,0.9,0.4c0.3,0.4,0.1,1-0.3,1.3c-0.4,0.3-1,0.1-1.3-0.3
			c-0.3-0.4-0.1-1,0.3-1.3C226,186.7,226.1,186.7,226.2,186.7z M686.1,186.7c-0.1,0-0.3,0.1-0.4,0.1c-0.4,0.3-0.5,0.8-0.3,1.3
			c0.3,0.4,0.8,0.5,1.3,0.3c0.4-0.3,0.5-0.8,0.3-1.3C686.8,186.7,686.5,186.6,686.1,186.7z M507.6,188c1,0,0.8,3.6-0.3,4.8
			c-1.3,1.3-2,1.2-2.6-0.4C504.1,191,506.2,188,507.6,188z M683.3,189c-0.9,0-1.6,0.7-1.2,1.5c0.3,0.4,0.8,0.8,1.2,0.8
			c1.1,0,1.8-1.5,0.8-2C683.9,189,683.6,189,683.3,189z M670.3,189.3L670.3,189.3c-0.5,0.3-0.8,1.2-0.8,2.8c0,1.5-0.4,2.4-1.2,2.4
			c-1.8,0-2.2,1.2-1.3,3.7c0.8,2.1,3.1,2.5,2.6,0.5c-0.1-0.6,0.4-0.8,1.3-0.5c0.9,0.3,2,0,2.6-0.7c0.6-0.7,1.5-1.3,2.1-1.3
			c1.4,0,3.1-3,2-3.6c-0.4-0.3-1.3-0.3-1.9,0c-0.6,0.2-2-0.5-3-1.6C671.7,189.7,670.9,189.2,670.3,189.3L670.3,189.3z M680.4,190.7
			c-0.1,0-0.3,0.1-0.4,0.1c-0.4,0.3-0.5,0.8-0.3,1.3c0.3,0.4,0.8,0.5,1.3,0.3c0.4-0.3,0.5-0.8,0.3-1.3
			C681.1,190.8,680.7,190.7,680.4,190.7z M233.2,193c0.1,0,0.2,0,0.2,0c0.2,0,0.2,0.2,0.2,0.3c-0.2,0.6-1.7,1.5-3.2,1.9
			c-1.5,0.4-4,1.7-5.5,2.9c-1.5,1.2-3.3,2.1-3.8,2.1c-1.6,0,2.2-2.6,7.9-5.5C231.1,193.7,232.5,193.1,233.2,193z M679.6,194
			c-0.1,0-0.3,0.1-0.4,0.1c-0.4,0.3-0.5,0.8-0.3,1.3c0.3,0.4,0.8,0.5,1.3,0.3s0.5-0.8,0.3-1.3C680.3,194.1,679.9,194,679.6,194z
			 M404.6,196.5c-0.8,0-1.3,1.1-0.6,2.1c0.4,0.6,0.8,0.6,1.4,0c0.6-0.6,0.6-1.1,0-1.8C405.1,196.6,404.9,196.5,404.6,196.5z
			 M668.2,201.4c-0.9,0-1.7,0.8-1.8,2.1c-0.5,4.8-1,5.9-2.2,4.9c-0.7-0.6-1.3-0.6-1.6-0.1c-0.3,0.4-0.1,1.1,0.4,1.4
			c0.6,0.4,0.6,0.9-0.1,1.7c-0.7,0.9-1.2,0.9-2.1,0.3c-0.9-0.7-1.3-0.5-1.9,1.1c-0.6,1.6-1.5,2.1-4.2,2.5c-2.3,0.3-4.2,1.2-5.5,2.6
			c-1.5,1.6-2.3,1.9-3,1.3c-1.8-1.5-2.1,0.1-0.4,2.5c0.9,1.3,1.4,2.7,1.1,3.2c-0.3,0.5-0.3,1.4-0.1,2.1c0.8,2.1,2.2,1.3,3.5-2
			c0.9-2.3,1.6-3.1,2.7-2.8c0.8,0.2,1.9-0.2,2.5-0.9c0.9-1.1,0.8-1.4-0.9-2.1c-1.9-0.8-1.9-0.8-0.1-0.8c1.1,0,2.2,0.7,2.8,1.7
			c0.9,1.8,1,1.8,2.3,0.2c0.9-1.1,2.3-1.6,4.6-1.6h3.3l1.2-5c0.7-2.8,1.5-5.3,1.8-5.7c1-1,0.7-5-0.4-5.8
			C669.4,201.6,668.8,201.4,668.2,201.4z M404.5,202.1c-0.5,0-1,0.6-1,1.7c0,1.5,0.3,2,1.3,1.6c0.7-0.3,1.2-1,1-1.7
			C405.6,202.6,405,202,404.5,202.1z M395.8,203.1c-0.1,0-0.2,0-0.3,0c-0.1,0-0.3,0.1-0.4,0.2c-0.5,0.3-1.2,0.6-1.6,0.6
			c-0.3,0-0.6,0.3-0.6,0.6c0,0.3,0,0.8,0,1.1c0,0.3,0.5,0.2,1-0.2c0.6-0.4,1.3-0.7,1.6-0.7c0.3-0.1,0.8-0.2,1.1-0.2
			c0.3-0.1,0.2-0.5-0.1-0.9C396.4,203.2,396.1,203.1,395.8,203.1z M389.9,206.3c-0.1,0-0.3,0.1-0.4,0.1c-0.4,0.3-0.5,0.8-0.3,1.3
			c0.3,0.4,0.8,0.5,1.3,0.3c0.4-0.3,0.5-0.8,0.3-1.3C390.6,206.4,390.2,206.2,389.9,206.3z M415,209.2c-2.9,0-3.2,1-0.6,2.3
			c2.7,1.3,3.1,1.2,3.1-0.6C417.4,209.6,416.9,209.2,415,209.2z M427.5,209.6c-0.1,0-0.3,0.1-0.4,0.1c-0.4,0.3-0.5,0.8-0.3,1.3
			c0.3,0.4,0.8,0.5,1.3,0.3c0.4-0.3,0.5-0.8,0.3-1.3C428.2,209.7,427.9,209.5,427.5,209.6z M410.3,212c-0.1,0-0.3,0.1-0.4,0.1
			c-0.4,0.3-0.5,0.8-0.3,1.3c0.3,0.4,0.8,0.5,1.3,0.3c0.4-0.3,0.5-0.8,0.3-1.3C411,212.1,410.7,212,410.3,212z M439.8,212
			c-0.1,0-0.3,0.1-0.4,0.1c-0.4,0.3-0.5,0.8-0.3,1.3c0.3,0.4,0.8,0.5,1.3,0.3c0.4-0.3,0.5-0.8,0.3-1.3
			C440.5,212.1,440.1,212,439.8,212z M435.7,212.8c-0.1,0-0.3,0.1-0.4,0.1c-0.4,0.3-0.5,0.8-0.3,1.3c0.3,0.4,0.8,0.5,1.3,0.3
			c0.4-0.3,0.5-0.8,0.3-1.3C436.4,212.9,436.1,212.8,435.7,212.8z M452.9,215.1c-0.4,0-0.7,0.1-1,0.3c-0.5,0.3-0.7,0.9-0.4,1.3
			c0.6,1,2.6,1,3.2-0.1C455.1,215.8,454,215.1,452.9,215.1z M414.4,215.3c-0.1,0-0.3,0.1-0.4,0.1c-0.4,0.3-0.5,0.8-0.3,1.3
			c0.3,0.4,0.8,0.5,1.3,0.3c0.4-0.3,0.5-0.8,0.3-1.3C415.1,215.4,414.8,215.2,414.4,215.3z M411.2,216.1c-0.1,0-0.3,0.1-0.4,0.1
			c-0.4,0.3-0.5,0.8-0.3,1.3c0.3,0.4,0.8,0.5,1.3,0.3c0.4-0.3,0.5-0.8,0.3-1.3C411.9,216.2,411.5,216.1,411.2,216.1z M436.3,216.7
			c-0.3,0-0.5,0.1-0.7,0.2c-0.3,0.3,0.2,0.4,1.1,0.4c1,0,1.1-0.2,0.5-0.5C436.9,216.7,436.6,216.7,436.3,216.7z M640.3,221
			c-0.1,0-0.3,0.1-0.4,0.1c-0.4,0.3-0.5,0.8-0.3,1.3c0.3,0.4,0.8,0.5,1.3,0.3c0.4-0.3,0.5-0.8,0.3-1.3
			C641,221.1,640.6,221,640.3,221z M255.7,222.7c-0.1,0-0.3,0.1-0.4,0.1c-0.4,0.3-0.5,0.8-0.3,1.3c0.3,0.4,0.8,0.5,1.3,0.3
			s0.5-0.8,0.3-1.3C256.4,222.7,256,222.6,255.7,222.7z M352.2,223.5c-0.1,0-0.3,0.1-0.4,0.1c-0.4,0.3-0.5,0.8-0.3,1.3
			c0.3,0.4,0.8,0.5,1.3,0.3c0.4-0.3,0.5-0.8,0.3-1.3C352.9,223.6,352.6,223.4,352.2,223.5z M643.6,223.5c-0.1,0-0.3,0.1-0.4,0.1
			c-0.4,0.3-0.5,0.8-0.3,1.3c0.3,0.4,0.8,0.5,1.3,0.3c0.4-0.3,0.5-0.8,0.3-1.3C644.3,223.6,643.9,223.4,643.6,223.5z M350.6,233.3
			c-0.1,0-0.3,0.1-0.4,0.1c-0.4,0.3-0.5,0.8-0.3,1.3c0.3,0.4,0.8,0.5,1.3,0.3c0.4-0.3,0.5-0.8,0.3-1.3
			C351.3,233.4,351,233.2,350.6,233.3z M358,234.1c-0.1,0-0.3,0.1-0.4,0.1c-0.4,0.3-0.5,0.8-0.3,1.3c0.3,0.4,0.8,0.5,1.3,0.3
			c0.4-0.3,0.5-0.8,0.3-1.3C358.7,234.2,358.3,234.1,358,234.1z M646,234.1c-0.1,0-0.3,0.1-0.4,0.1c-0.4,0.3-0.5,0.8-0.3,1.3
			c0.3,0.4,0.8,0.5,1.3,0.3c0.4-0.3,0.5-0.8,0.3-1.3C646.7,234.2,646.4,234.1,646,234.1z M353.9,234.9c-0.1,0-0.3,0.1-0.4,0.1
			c-0.4,0.3-0.5,0.8-0.3,1.3c0.3,0.4,0.8,0.5,1.3,0.3c0.4-0.3,0.5-0.8,0.3-1.3C354.6,235,354.2,234.9,353.9,234.9z M228.7,236.6
			c-0.1,0-0.3,0.1-0.4,0.1c-0.4,0.3-0.5,0.8-0.3,1.3c0.3,0.4,0.8,0.5,1.3,0.3c0.4-0.3,0.5-0.8,0.3-1.3
			C229.4,236.7,229,236.5,228.7,236.6z M350.6,236.6c-0.1,0-0.3,0.1-0.4,0.1c-0.4,0.3-0.5,0.8-0.3,1.3c0.3,0.4,0.8,0.5,1.3,0.3
			c0.4-0.3,0.5-0.8,0.3-1.3C351.3,236.7,351,236.5,350.6,236.6z M231.9,237.4c-0.1,0-0.3,0.1-0.4,0.1c-0.4,0.3-0.5,0.8-0.3,1.3
			c0.3,0.4,0.8,0.5,1.3,0.3c0.4-0.3,0.5-0.8,0.3-1.3C232.6,237.5,232.3,237.3,231.9,237.4z M642.9,237.6c-1.1,0-2.3,1.7-1.6,2.8
			c0.4,0.7,1,0.5,1.9-0.4c0.9-0.9,1-1.5,0.4-2.1C643.4,237.6,643.1,237.6,642.9,237.6z M495.4,239.8c-0.1,0-0.3,0.1-0.4,0.1
			c-0.4,0.3-0.5,0.8-0.3,1.3c0.3,0.4,0.8,0.5,1.3,0.3c0.4-0.3,0.5-0.8,0.3-1.3C496.1,239.9,495.8,239.8,495.4,239.8z M228.7,240.7
			c-0.1,0-0.3,0.1-0.4,0.1c-0.4,0.3-0.5,0.8-0.3,1.3c0.3,0.4,0.8,0.5,1.3,0.3c0.4-0.3,0.5-0.8,0.3-1.3
			C229.4,240.7,229,240.6,228.7,240.7z M232.8,240.7c-0.1,0-0.3,0.1-0.4,0.1c-0.4,0.3-0.5,0.8-0.3,1.3c0.3,0.4,0.8,0.5,1.3,0.3
			c0.4-0.3,0.5-0.8,0.3-1.3C233.5,240.7,233.1,240.6,232.8,240.7z M637.8,242.3c-0.1,0-0.3,0.1-0.4,0.1c-0.4,0.3-0.5,0.8-0.3,1.3
			c0.3,0.4,0.8,0.5,1.3,0.3c0.4-0.3,0.5-0.8,0.3-1.3C638.5,242.4,638.2,242.2,637.8,242.3z M230.3,243.1c-0.1,0-0.3,0.1-0.4,0.1
			c-0.4,0.3-0.5,0.8-0.3,1.3c0.3,0.4,0.8,0.5,1.3,0.3c0.4-0.3,0.5-0.8,0.3-1.3C231,243.2,230.7,243.1,230.3,243.1z M234.4,243.1
			c-0.1,0-0.3,0.1-0.4,0.1c-0.4,0.3-0.5,0.8-0.3,1.3c0.3,0.4,0.8,0.5,1.3,0.3c0.4-0.3,0.5-0.8,0.3-1.3
			C235.1,243.2,234.8,243.1,234.4,243.1z M634.6,243.1c-0.1,0-0.3,0.1-0.4,0.1c-0.4,0.3-0.5,0.8-0.3,1.3c0.3,0.4,0.8,0.5,1.3,0.3
			c0.4-0.3,0.5-0.8,0.3-1.3C635.3,243.2,634.9,243.1,634.6,243.1z M629.5,243.3c-0.1,0-0.3,0.2-0.6,0.4c-1.2,1-1.6,5-0.6,6
			c0.8,0.8,0.8,0.6,1.3-3.4C629.9,244,629.9,243.2,629.5,243.3z M232.8,245.6c-0.1,0-0.3,0.1-0.4,0.1c-0.4,0.3-0.5,0.8-0.3,1.3
			c0.3,0.4,0.8,0.6,1.2,0.3c0.4-0.2,0.9-0.1,1.2,0.4c0.3,0.5,0.9,0.6,1.3,0.4c0.4-0.3,0.5-0.8,0.3-1.3c-0.3-0.4-0.8-0.6-1.2-0.3
			c-0.4,0.2-0.9,0.1-1.2-0.4C233.5,245.7,233.1,245.5,232.8,245.6z M221.4,247c-1.3,0-2.3,0.4-3.3,1.1c-1.5,1.1-1.5,1.2,0.5,1.9
			c1.1,0.4,2,1,1.8,1.3c-0.4,1.1-0.2,1.4,0.7,0.9c0.6-0.4,0.6-0.9-0.1-1.7c-0.7-0.8-0.7-1.2-0.1-1.2c1.3,0,9.9,4.2,9.8,4.8
			c0,0.3,0,0.8,0,1.2c0.2,1.1,4.8,0.7,5.8-0.5c0.8-0.9-0.3-1.8-5.7-4.5C226.4,248,223.5,247,221.4,247z M238.5,248
			c-0.1,0-0.3,0.1-0.4,0.1c-0.4,0.3-0.5,0.8-0.3,1.3c0.3,0.4,0.8,0.5,1.3,0.3c0.4-0.3,0.5-0.8,0.3-1.3
			C239.2,248.1,238.8,248,238.5,248z M67.5,248.8c-0.1,0-0.3,0.1-0.4,0.1c-0.4,0.3-0.5,0.8-0.3,1.3c0.3,0.4,0.8,0.5,1.3,0.3
			c0.4-0.3,0.5-0.8,0.3-1.3C68.2,248.9,67.8,248.8,67.5,248.8z M241.8,248.8c-0.1,0-0.3,0.1-0.4,0.1c-0.4,0.3-0.5,0.8-0.3,1.3
			c0.3,0.4,0.8,0.5,1.3,0.3c0.4-0.3,0.5-0.8,0.3-1.3C242.5,248.9,242.1,248.8,241.8,248.8z M70.4,250.4c-0.9,0-1.6,0.7-1.2,1.5
			c0.3,0.4,0.8,0.8,1.2,0.8c1.1,0,1.8-1.5,0.8-2C71,250.4,70.7,250.3,70.4,250.4z M240.1,251.3c-0.1,0-0.3,0.1-0.4,0.1
			c-0.4,0.3-0.5,0.8-0.3,1.3c0.3,0.4,0.8,0.5,1.3,0.3c0.4-0.3,0.5-0.8,0.3-1.3C240.8,251.4,240.5,251.2,240.1,251.3z M74,252.1
			c-0.1,0-0.2,0.1-0.4,0.1c-0.5,0.3-0.5,0.9,0.1,1.5c0.5,0.6,0.6,1.2,0.4,1.5s-0.2,0.9,0.1,1.4c0.7,1.1,1.8,1.1,2.6-0.1
			c0.3-0.5-0.1-1.4-0.9-2c-0.8-0.6-1.2-1.1-0.9-1.1c0.3,0,0.4-0.4,0.1-0.8C74.7,252.2,74.4,252.1,74,252.1z M606.2,255.1
			c-0.6,0.1-1.4,0.5-1.7,1.3c-0.3,0.9-0.1,1.2,0.9,1c0.7-0.1,1.5-0.7,1.7-1.3C607.3,255.3,606.8,255,606.2,255.1z M242.2,256.3
			c-1.2,0-2,0.2-1.8,0.6c0.2,0.4-0.3,0.9-1.1,1.2c-2.3,0.9,2.8,1.7,5.8,0.9c1.3-0.4,2.7-0.4,3.1-0.2c0.4,0.2,0.7,0.1,0.7-0.4
			s-1-1.1-2.3-1.4C245.1,256.6,243.4,256.3,242.2,256.3z M252.9,257.7c-0.9,0-1.6,0.7-1.2,1.5c0.3,0.4,0.8,0.8,1.2,0.8
			c1.1,0,1.8-1.5,0.8-2C253.5,257.8,253.2,257.7,252.9,257.7z M230.3,258.5c-0.4,0-0.7,0.1-1,0.3c-0.5,0.3-0.7,0.9-0.4,1.3
			c0.6,1,2.6,1,3.2-0.1C232.5,259.2,231.4,258.5,230.3,258.5z M629.3,258.6c-1.2,0.1-1.5,0.8-1.9,4c-0.6,4.5,0.1,5.9,3.2,6.7
			c2.1,0.5,4.8,4.7,3.8,5.8c-0.3,0.4-0.1,0.4,0.5,0.1c0.6-0.3,0.8-1,0.5-1.6h0c-0.3-0.6,0-0.5,0.8,0.2c2.9,2.3,1.2-0.1-2.7-4.1
			c-4.5-4.5-4.7-5-2.9-6.5c2-1.7,1.6-4.5-0.7-4.6C629.7,258.6,629.5,258.6,629.3,258.6z M256.5,259.5c-0.1,0-0.3,0.1-0.4,0.1
			c-0.4,0.3-0.5,0.8-0.3,1.3c0.3,0.4,0.8,0.5,1.3,0.3c0.4-0.3,0.5-0.8,0.3-1.3C257.2,259.6,256.8,259.4,256.5,259.5z M215.6,260.3
			c-0.1,0-0.3,0.1-0.4,0.1c-0.4,0.3-0.5,0.8-0.3,1.3c0.3,0.4,0.8,0.5,1.3,0.3c0.4-0.3,0.5-0.8,0.3-1.3
			C216.3,260.4,215.9,260.2,215.6,260.3z M259.8,260.3c-0.1,0-0.3,0.1-0.4,0.1c-0.4,0.3-0.5,0.8-0.3,1.3c0.3,0.4,0.8,0.5,1.3,0.3
			c0.4-0.3,0.5-0.8,0.3-1.3C260.5,260.4,260.1,260.2,259.8,260.3z M263,261.1c-0.1,0-0.3,0.1-0.4,0.1c-0.4,0.3-0.5,0.8-0.3,1.3
			c0.3,0.4,0.8,0.5,1.3,0.3c0.4-0.3,0.5-0.8,0.3-1.3C263.7,261.2,263.4,261.1,263,261.1z M335.9,262.8c-0.1,0-0.3,0.1-0.4,0.1
			c-0.4,0.3-0.5,0.8-0.3,1.3c0.3,0.4,0.8,0.5,1.3,0.3c0.4-0.3,0.5-0.8,0.3-1.3C336.6,262.8,336.2,262.7,335.9,262.8z M340.8,263.6
			c-0.1,0-0.3,0.1-0.4,0.1c-0.4,0.3-0.5,0.8-0.3,1.3c0.3,0.4,0.8,0.5,1.3,0.3c0.4-0.3,0.5-0.8,0.3-1.3
			C341.5,263.7,341.1,263.5,340.8,263.6z M263,264.4c-0.1,0-0.3,0.1-0.4,0.1c-0.4,0.3-0.5,0.8-0.3,1.3c0.3,0.4,0.8,0.5,1.3,0.3
			s0.5-0.8,0.3-1.3C263.7,264.5,263.4,264.3,263,264.4z M678.7,265.2c-0.1,0-0.3,0.1-0.4,0.1c-0.4,0.3-0.5,0.8-0.3,1.3
			c0.3,0.4,0.8,0.5,1.3,0.3c0.4-0.3,0.5-0.8,0.3-1.3C679.4,265.3,679.1,265.2,678.7,265.2z M722.1,266c-0.1,0-0.3,0.1-0.4,0.1
			c-0.4,0.3-0.5,0.8-0.3,1.3c0.3,0.4,0.8,0.5,1.3,0.3c0.4-0.3,0.5-0.8,0.3-1.3C722.8,266.1,722.5,266,722.1,266z M337.5,266.8
			c-0.1,0-0.3,0.1-0.4,0.1c-0.4,0.3-0.5,0.8-0.3,1.3c0.3,0.4,0.8,0.5,1.3,0.3c0.4-0.3,0.5-0.8,0.3-1.3
			C338.2,266.9,337.9,266.8,337.5,266.8z M340.8,266.8c-0.1,0-0.3,0.1-0.4,0.1c-0.4,0.3-0.5,0.8-0.3,1.3c0.3,0.4,0.8,0.5,1.3,0.3
			c0.4-0.3,0.5-0.8,0.3-1.3C341.5,266.9,341.1,266.8,340.8,266.8z M263.9,267.7c-0.1,0-0.3,0.1-0.4,0.1c-0.4,0.3-0.6,0.8-0.3,1.2
			s0.1,0.9-0.4,1.2c-0.5,0.3-0.6,0.9-0.4,1.3c0.3,0.4,0.8,0.5,1.3,0.3c0.4-0.3,0.6-0.8,0.3-1.2c-0.2-0.4-0.1-0.9,0.4-1.2
			c0.5-0.3,0.6-0.9,0.4-1.3C264.6,267.8,264.2,267.6,263.9,267.7z M636.2,267.7c-0.1,0-0.3,0.1-0.4,0.1c-0.4,0.3-0.5,0.8-0.3,1.3
			c0.3,0.4,0.8,0.5,1.3,0.3c0.4-0.3,0.5-0.8,0.3-1.3C636.9,267.8,636.5,267.6,636.2,267.7z M676.3,268.5c-0.1,0-0.3,0.1-0.4,0.1
			c-0.4,0.3-0.5,0.8-0.3,1.3c0.3,0.4,0.8,0.5,1.3,0.3c0.4-0.3,0.5-0.8,0.3-1.3C677,268.6,676.6,268.4,676.3,268.5z M267.1,270.9
			c-0.1,0-0.3,0.1-0.4,0.1c-0.4,0.3-0.5,0.8-0.3,1.3c0.3,0.4,0.8,0.5,1.3,0.3c0.4-0.3,0.5-0.8,0.3-1.3
			C267.8,271,267.5,270.9,267.1,270.9z M628.8,271c-0.8,0-1.3,1.1-0.6,2.1c0.4,0.6,0.8,0.6,1.4,0c0.6-0.6,0.6-1.1,0-1.8
			C629.3,271.1,629.1,271,628.8,271z M249.1,271.8c-0.1,0-0.3,0.1-0.4,0.1c-0.4,0.3-0.5,0.8-0.3,1.3c0.3,0.4,0.8,0.5,1.3,0.3
			c0.4-0.3,0.5-0.8,0.3-1.3C249.8,271.8,249.5,271.7,249.1,271.8z M571.5,271.8c-0.1,0-0.3,0.1-0.4,0.1c-0.4,0.3-0.5,0.8-0.3,1.3
			c0.3,0.4,0.8,0.5,1.3,0.3c0.4-0.3,0.5-0.8,0.3-1.3C572.2,271.8,571.9,271.7,571.5,271.8z M252.4,272.6c-0.1,0-0.3,0.1-0.4,0.1
			c-0.4,0.3-0.5,0.8-0.3,1.3c0.3,0.4,0.8,0.5,1.3,0.3c0.4-0.3,0.5-0.8,0.3-1.3C253.1,272.7,252.8,272.5,252.4,272.6z M493.8,272.6
			c-0.1,0-0.3,0.1-0.4,0.1c-0.4,0.3-0.5,0.8-0.3,1.3c0.3,0.4,0.8,0.5,1.3,0.3c0.4-0.3,0.5-0.8,0.3-1.3
			C494.5,272.7,494.2,272.5,493.8,272.6z M262.2,273.4c-0.1,0-0.3,0.1-0.4,0.1c-0.4,0.3-0.5,0.8-0.3,1.3c0.3,0.4,0.8,0.5,1.3,0.3
			c0.4-0.3,0.5-0.8,0.3-1.3C262.9,273.5,262.6,273.3,262.2,273.4z M626.4,273.4c-0.1,0-0.3,0.1-0.4,0.1c-0.4,0.3-0.5,0.8-0.3,1.3
			c0.3,0.4,0.8,0.5,1.3,0.3c0.4-0.3,0.5-0.8,0.3-1.3C627.1,273.5,626.7,273.3,626.4,273.4z M571.5,275c-0.1,0-0.3,0.1-0.4,0.1
			c-0.4,0.3-0.5,0.8-0.3,1.3c0.3,0.4,0.8,0.5,1.3,0.3c0.4-0.3,0.5-0.8,0.3-1.3C572.2,275.1,571.9,275,571.5,275z M631.3,275
			c-0.1,0-0.3,0.1-0.4,0.1c-0.4,0.3-0.5,0.8-0.3,1.3c0.3,0.4,0.8,0.5,1.3,0.3c0.4-0.3,0.5-0.8,0.3-1.3
			C632,275.1,631.6,275,631.3,275z M264.7,275.8c-0.1,0-0.3,0.1-0.4,0.1c-0.4,0.3-0.5,0.8-0.3,1.3c0.3,0.4,0.8,0.5,1.3,0.3
			c0.4-0.3,0.5-0.8,0.3-1.3C265.4,275.9,265,275.8,264.7,275.8z M241.9,276.5C241.9,276.5,241.9,276.5,241.9,276.5
			c-0.3,0.3-0.3,1.1,0,1.8s0.7,1.2,0.9,1c0.2-0.2,0.2-1-0.1-1.8C242.5,276.8,242.2,276.4,241.9,276.5z M624.6,277.2
			c-0.6,0-2.6,3.5-2.6,4.6c0,1,0.9,0.1,2-2.1C624.7,278.3,625,277.2,624.6,277.2z M638.6,277.5c-0.1,0-0.3,0.1-0.4,0.1
			c-0.4,0.3-0.5,0.8-0.3,1.3c0.3,0.4,0.8,0.5,1.3,0.3c0.4-0.3,0.5-0.8,0.3-1.3C639.3,277.6,639,277.4,638.6,277.5z M593.6,278.3
			c-0.1,0-0.3,0.1-0.4,0.1c-0.4,0.3-0.5,0.8-0.3,1.3c0.3,0.4,0.8,0.5,1.3,0.3c0.4-0.3,0.5-0.8,0.3-1.3
			C594.3,278.4,594,278.2,593.6,278.3z M694.3,280.8c-0.1,0-0.3,0.1-0.4,0.1c-0.4,0.3-0.5,0.8-0.3,1.3c0.3,0.4,0.8,0.5,1.3,0.3
			c0.4-0.3,0.5-0.8,0.3-1.3C695,280.8,694.6,280.7,694.3,280.8z M728.7,280.8c-0.1,0-0.3,0.1-0.4,0.1c-0.4,0.3-0.5,0.8-0.3,1.3
			c0.3,0.4,0.8,0.5,1.3,0.3c0.4-0.3,0.5-0.8,0.3-1.3C729.4,280.8,729,280.7,728.7,280.8z M638.3,281.4c-0.5,0-1.3,0.4-2.6,1
			c-1.6,0.9-2.3,0.9-2.3,0.2c0-1.1-2.4,1.8-2.4,3c0,0.4,0.5,0.3,1.2-0.2c1.3-1.1,2.9-0.5,2.9,1.2c0,1.7,1.8,1.9,3.2,0.5
			c0.8-0.8,1.2-2.2,1-3.5C639.1,282,639,281.4,638.3,281.4z M547.3,281.5c-0.6,0-1.1,0.7-1.3,2.1c-0.5,3.4,0.7,4.9,2.9,3.5
			c0.8-0.5,0.8-1.3,0.1-3.3C548.6,282.3,547.9,281.6,547.3,281.5z M532.3,282.4c-0.1,0-0.3,0.1-0.4,0.1c-0.4,0.3-0.5,0.8-0.3,1.3
			c0.3,0.4,0.8,0.5,1.3,0.3c0.4-0.3,0.5-0.8,0.3-1.3C533,282.5,532.6,282.3,532.3,282.4z M688.6,282.4c-0.1,0-0.3,0.1-0.4,0.1
			c-0.4,0.3-0.5,0.8-0.3,1.3c0.3,0.4,0.8,0.5,1.3,0.3c0.4-0.3,0.5-0.8,0.3-1.3C689.3,282.5,688.9,282.3,688.6,282.4z M691.8,283.2
			c-0.1,0-0.3,0.1-0.4,0.1c-0.4,0.3-0.5,0.8-0.3,1.3c0.3,0.4,0.8,0.5,1.3,0.3c0.4-0.3,0.5-0.8,0.3-1.3
			C692.5,283.3,692.2,283.2,691.8,283.2z M656.1,285.6c-0.2,0-0.4,0.2-0.6,0.4c-0.5,0.5-0.7,1.5-0.4,2.3c0.4,1,0.8,1.2,1.4,0.5
			c0.5-0.5,0.7-1.5,0.4-2.3C656.6,285.8,656.4,285.5,656.1,285.6z M532.3,285.7c-0.1,0-0.3,0.1-0.4,0.1c-0.4,0.3-0.5,0.8-0.3,1.3
			c0.3,0.4,0.8,0.5,1.3,0.3c0.4-0.3,0.5-0.8,0.3-1.3C533,285.8,532.6,285.6,532.3,285.7z M574,286.5c-0.1,0-0.3,0.1-0.4,0.1
			c-0.4,0.3-0.5,0.8-0.3,1.3c0.3,0.4,0.8,0.5,1.3,0.3c0.4-0.3,0.5-0.8,0.3-1.3C574.7,286.6,574.4,286.4,574,286.5z M668.9,286.5
			c-0.1,0-0.3,0.1-0.4,0.1c-0.4,0.3-0.5,0.8-0.3,1.3c0.3,0.4,0.8,0.5,1.3,0.3c0.4-0.3,0.5-0.8,0.3-1.3
			C669.6,286.6,669.3,286.4,668.9,286.5z M682.8,286.5c-0.1,0-0.3,0.1-0.4,0.1c-0.4,0.3-0.5,0.8-0.3,1.3c0.3,0.4,0.8,0.5,1.3,0.3
			c0.4-0.3,0.5-0.8,0.3-1.3C683.5,286.6,683.2,286.4,682.8,286.5z M620.4,287.1l-4.5,4.4c-2.5,2.4-5,4.4-5.7,4.4
			c-0.7,0-1.4,0.7-1.6,1.6c-0.2,0.9-1.3,1.7-2.4,1.8c-1.6,0.2-1.9,0.7-1.7,2.7c0.1,1.3,1.3,3.9,2.5,5.7c1.9,2.9,2.6,3.3,5.2,3.3
			c1.6,0,3.2,0.3,3.6,0.6c0.3,0.3,1.1,0.2,1.6-0.2c0.5-0.4,1.2-0.6,1.5-0.3c0.3,0.3,0.3-0.6,0.1-1.9c-0.3-1.5-0.1-2.7,0.4-3.1
			c0.5-0.3,1.5-1.8,2.1-3.4c0.6-1.5,1.6-2.8,2.1-2.8c0.7,0,0.7-0.3,0-1.2c-0.5-0.7-0.8-1.5-0.5-1.9c0.3-0.4-0.3-1-1.3-1.2
			c-1.8-0.5-1.8-0.5,0.5-2.7l2.3-2.3l-2.1-1.8L620.4,287.1z M628,288.1c-0.1,0-0.3,0.1-0.4,0.1c-0.4,0.3-0.5,0.8-0.3,1.3
			c0.3,0.4,0.8,0.5,1.3,0.3s0.5-0.8,0.3-1.3C628.7,288.2,628.4,288.1,628,288.1z M679.6,288.1c-0.1,0-0.3,0.1-0.4,0.1
			c-0.4,0.3-0.5,0.8-0.3,1.3c0.3,0.4,0.8,0.5,1.3,0.3c0.4-0.3,0.5-0.8,0.3-1.3C680.3,288.2,679.9,288.1,679.6,288.1z M533.1,288.9
			c-0.1,0-0.3,0.1-0.4,0.1c-0.4,0.3-0.5,0.8-0.3,1.3c0.3,0.4,0.8,0.5,1.3,0.3c0.4-0.3,0.5-0.8,0.3-1.3
			C533.8,289,533.4,288.9,533.1,288.9z M713.1,289.8c-0.1,0-0.3,0.1-0.4,0.1c-0.4,0.3-0.5,0.8-0.3,1.3c0.3,0.4,0.8,0.5,1.3,0.3
			c0.4-0.3,0.5-0.8,0.3-1.3C713.8,289.8,713.5,289.7,713.1,289.8z M577.8,290.3l3.3,4.1c1.8,2.3,3.3,4.8,3.3,5.5
			c0,0.8,0.9,2.2,2,3.3c1.1,1.1,2.1,2.5,2.1,3.2c0,1.6,6.6,9.1,7.7,8.7c0.5-0.1,0.9-1.1,1.1-2.2c0.2-1.1,0.7-2.4,1.1-3
			c0.9-1.1,0.1-2.9-1-2.2c-0.9,0.6-5.7-3.8-5.2-4.7c0.2-0.3-1.6-2.6-4-5c-2.4-2.4-4.5-4.8-4.7-5.4c-0.2-0.6-1.5-1.4-3-1.8
			L577.8,290.3z M532.3,292.2c-0.1,0-0.3,0.1-0.4,0.1c-0.4,0.3-0.5,0.8-0.3,1.3c0.3,0.4,0.8,0.5,1.3,0.3c0.4-0.3,0.5-0.8,0.3-1.3
			C533,292.3,532.6,292.2,532.3,292.2z M602.6,293c-0.1,0-0.3,0.1-0.4,0.1c-0.4,0.3-0.5,0.8-0.3,1.3c0.3,0.4,0.8,0.5,1.3,0.3
			c0.4-0.3,0.5-0.8,0.3-1.3C603.3,293.1,603,293,602.6,293z M402.2,293.9c-0.1,0-0.3,0.1-0.4,0.1c-0.4,0.3-0.5,0.8-0.3,1.3
			c0.3,0.4,0.8,0.5,1.3,0.3c0.4-0.3,0.5-0.8,0.3-1.3C402.9,293.9,402.5,293.8,402.2,293.9z M578.1,295.5c-0.1,0-0.3,0.1-0.4,0.1
			c-0.4,0.3-0.5,0.8-0.3,1.3c0.3,0.4,0.8,0.5,1.3,0.3s0.5-0.8,0.3-1.3C578.8,295.6,578.4,295.4,578.1,295.5z M643.6,295.5
			c-0.1,0-0.3,0.1-0.4,0.1c-0.4,0.3-0.5,0.8-0.3,1.3c0.3,0.4,0.8,0.5,1.3,0.3c0.4-0.3,0.5-0.8,0.3-1.3
			C644.3,295.6,643.9,295.4,643.6,295.5z M400.5,297.1c-0.1,0-0.3,0.1-0.4,0.1c-0.4,0.3-0.5,0.8-0.3,1.3c0.3,0.4,0.8,0.5,1.3,0.3
			c0.4-0.3,0.5-0.8,0.3-1.3C401.2,297.2,400.9,297.1,400.5,297.1z M204.1,298.8c-0.1,0-0.3,0.1-0.4,0.1c-0.4,0.3-0.5,0.8-0.3,1.3
			c0.3,0.4,0.8,0.5,1.3,0.3c0.4-0.3,0.5-0.8,0.3-1.3C204.8,298.8,204.5,298.7,204.1,298.8z M642.9,299.5c-0.9,0-1.2,0.8-1.1,2.8
			c0.1,3,1,2.7,1.9-0.7C644.1,300,643.9,299.5,642.9,299.5z M581.4,299.6c-0.1,0-0.3,0.1-0.4,0.1c-0.4,0.3-0.5,0.8-0.3,1.3
			c0.3,0.4,0.8,0.5,1.3,0.3c0.4-0.3,0.5-0.8,0.3-1.3C582.1,299.7,581.7,299.5,581.4,299.6z M730.3,299.6c-0.1,0-0.3,0.1-0.4,0.1
			c-0.4,0.3-0.5,0.8-0.3,1.3c0.3,0.4,0.8,0.5,1.3,0.3c0.4-0.3,0.5-0.8,0.3-1.3C731,299.7,730.6,299.5,730.3,299.6z M634.5,300.3
			c-0.5,0-1.2,0-2.1,0c-2.5,0.1-5,0.5-5.4,0.9c-1.4,1.5-2.7,9.5-1.7,10.7c0.5,0.6,0.7,1.4,0.4,1.9c-0.4,0.7,1.1,4.2,1.8,4.2
			c0.1,0,0-1.5-0.3-3.2c-1-6.2,1.6-7.6,2.9-1.5c0.7,3.4,2.1,3.6,2.2,0.3c0-1.6-0.6-3-2-4.2c-2.4-2.1-1.7-4,1.2-3.3
			c1.2,0.3,1.9,0.1,1.9-0.4c0-0.5-1.2-0.8-3-0.6c-2,0.2-3.1-0.1-3.4-0.9c-0.6-1.7,2.2-3.3,4.8-2.8c1.3,0.2,2.9,0.1,3.7-0.4
			C636.4,300.6,636.1,300.4,634.5,300.3z M398.1,300.4c-0.1,0-0.3,0.1-0.4,0.1c-0.4,0.3-0.5,0.8-0.3,1.3c0.3,0.4,0.8,0.5,1.3,0.3
			c0.4-0.3,0.5-0.8,0.3-1.3C398.8,300.5,398.4,300.3,398.1,300.4z M646.8,302c-0.1,0-0.3,0.1-0.4,0.1c-0.4,0.3-0.5,0.8-0.3,1.3
			c0.3,0.4,0.8,0.5,1.3,0.3c0.4-0.3,0.5-0.8,0.3-1.3C647.5,302.1,647.2,302,646.8,302z M204.1,302.9c-0.1,0-0.3,0.1-0.4,0.1
			c-0.4,0.3-0.5,0.8-0.3,1.3c0.3,0.4,0.8,0.5,1.3,0.3c0.4-0.3,0.5-0.8,0.3-1.3C204.8,302.9,204.5,302.8,204.1,302.9z M719.7,302.9
			c-0.1,0-0.3,0.1-0.4,0.1c-0.4,0.3-0.5,0.8-0.3,1.3s0.8,0.5,1.3,0.3c0.4-0.3,0.5-0.8,0.3-1.3C720.4,302.9,720,302.8,719.7,302.9z
			 M200.9,302.9c-0.8,0-1.3,1.1-0.6,2.1c0.4,0.6,0.8,0.6,1.4,0c0.6-0.6,0.6-1.1,0-1.8C201.4,303,201.1,302.9,200.9,302.9z
			 M207.4,303.7c-0.1,0-0.3,0.1-0.4,0.1c-0.4,0.3-0.5,0.8-0.3,1.3c0.3,0.4,0.8,0.5,1.3,0.3c0.4-0.3,0.5-0.8,0.3-1.3
			C208.1,303.8,207.7,303.6,207.4,303.7z M649.9,304.5c-1.3,0.1-0.3,1.3,2.2,2.3c2,0.7,2,0.9,0.8,1.8c-0.8,0.6-1.1,1.4-0.7,2.1
			c0.5,0.7,0.8,0.8,1.2,0.2c0.8-1.2,8.4,2.8,10,5.3c1.2,1.8,1.1,2.1-0.3,3.7c-1.3,1.5-1.3,1.7-0.2,1.3c0.7-0.3,2.7,0.2,4.3,1.1
			c3.3,1.8,6.3,2.1,6,0.6c-0.1-0.5,0.8-1.3,2-1.8c1.8-0.7,2.6-0.5,3.9,0.7c0.9,0.8,1.7,2,1.7,2.6c0,0.6,1.2,1.4,2.7,1.8
			c4.2,1.2,4.5,1,1.5-1.5c-1.5-1.3-2.9-3.2-3-4.3c-0.1-1-0.2-2.1-0.3-2.4c-0.2-1.3-9.4-6.8-14.4-8.6l-5.5-2l-1.9,1.8
			c-1.8,1.7-2,1.7-3.5,0.4c-0.9-0.8-1.4-2-1.2-2.6c0.4-1.2-0.1-1.5-4.1-2.4C650.6,304.5,650.2,304.4,649.9,304.5z M731.9,304.5
			c-0.1,0-0.3,0.1-0.4,0.1c-0.4,0.3-0.5,0.8-0.3,1.3c0.3,0.4,0.8,0.5,1.3,0.3c0.4-0.3,0.5-0.8,0.3-1.3
			C732.6,304.6,732.3,304.4,731.9,304.5z M584.6,305.3c-0.1,0-0.3,0.1-0.4,0.1c-0.4,0.3-0.5,0.8-0.3,1.3c0.3,0.4,0.8,0.5,1.3,0.3
			c0.4-0.3,0.5-0.8,0.3-1.3C585.3,305.4,585,305.3,584.6,305.3z M658.3,305.3c-0.1,0-0.3,0.1-0.4,0.1c-0.4,0.3-0.5,0.8-0.3,1.3
			c0.3,0.4,0.8,0.5,1.3,0.3s0.5-0.8,0.3-1.3C659,305.4,658.6,305.3,658.3,305.3z M671.4,305.3c-0.1,0-0.3,0.1-0.4,0.1
			c-0.4,0.3-0.5,0.8-0.3,1.3c0.3,0.4,0.8,0.5,1.3,0.3c0.4-0.3,0.5-0.8,0.3-1.3C672.1,305.4,671.7,305.3,671.4,305.3z M686.9,305.3
			c-0.1,0-0.3,0.1-0.4,0.1c-0.4,0.3-0.5,0.8-0.3,1.3c0.3,0.4,0.8,0.5,1.3,0.3c0.4-0.3,0.5-0.8,0.3-1.3
			C687.6,305.4,687.3,305.3,686.9,305.3z M646.8,305.4c-0.8,0-1.3,1.1-0.6,2.1c0.4,0.6,0.8,0.6,1.4,0c0.6-0.6,0.6-1.1,0-1.8
			C647.4,305.4,647.1,305.3,646.8,305.4z M396.4,306.1c-0.1,0-0.3,0.1-0.4,0.1c-0.4,0.3-0.5,0.8-0.3,1.3c0.3,0.4,0.8,0.5,1.3,0.3
			c0.4-0.3,0.5-0.8,0.3-1.3C397.1,306.2,396.8,306.1,396.4,306.1z M603.5,306.1c-0.1,0-0.3,0.1-0.4,0.1c-0.4,0.3-0.5,0.8-0.3,1.3
			c0.3,0.4,0.8,0.5,1.3,0.3c0.4-0.3,0.5-0.8,0.3-1.3C604.2,306.2,603.8,306.1,603.5,306.1z M680.4,306.1c-0.1,0-0.3,0.1-0.4,0.1
			c-0.4,0.3-0.5,0.8-0.3,1.3c0.3,0.4,0.8,0.5,1.3,0.3c0.4-0.3,0.5-0.8,0.3-1.3C681.1,306.2,680.7,306.1,680.4,306.1z M636.2,306.9
			c-0.1,0-0.3,0.1-0.4,0.1c-0.4,0.3-0.5,0.8-0.3,1.3c0.3,0.4,0.8,0.5,1.3,0.3c0.4-0.3,0.5-0.8,0.3-1.3
			C636.9,307,636.5,306.9,636.2,306.9z M639.5,306.9c-0.1,0-0.3,0.1-0.4,0.1c-0.4,0.3-0.5,0.8-0.3,1.3c0.3,0.4,0.8,0.5,1.3,0.3
			c0.4-0.3,0.5-0.8,0.3-1.3C640.2,307,639.8,306.9,639.5,306.9z M734.4,306.9c-0.1,0-0.3,0.1-0.4,0.1c-0.4,0.3-0.5,0.8-0.3,1.3
			c0.3,0.4,0.8,0.5,1.3,0.3c0.4-0.3,0.5-0.8,0.3-1.3C735.1,307,734.7,306.9,734.4,306.9z M737.7,307.8c-0.1,0-0.3,0.1-0.4,0.1
			c-0.4,0.3-0.5,0.8-0.3,1.3c0.3,0.4,0.8,0.5,1.3,0.3c0.4-0.3,0.5-0.8,0.3-1.3C738.4,307.9,738,307.7,737.7,307.8z M601.8,308.6
			c-0.1,0-0.3,0.1-0.4,0.1c-0.4,0.3-0.5,0.8-0.3,1.3c0.3,0.4,0.8,0.5,1.3,0.3c0.4-0.3,0.5-0.8,0.3-1.3
			C602.5,308.7,602.2,308.5,601.8,308.6z M691.8,308.7c-0.7,0-0.8,0.9,0.3,2.5c0.9,1.4,1.6,1.8,2.2,1.2c0.6-0.6,0.3-1.3-0.7-2.5
			C692.9,309.1,692.3,308.7,691.8,308.7z M586.3,309.1c-0.2-0.1-0.1,0.2,0.2,1c0.3,0.8,0.8,1.3,1,1s0-0.9-0.6-1.5
			C586.6,309.4,586.4,309.2,586.3,309.1z M644.9,309.1c-0.5,0-0.9,0.1-1.4,0.3c-0.7,0.3-1,0.9-0.7,1.4c0.7,1.1,4.9,0.7,4.9-0.5
			C647.8,309.5,646.4,309.1,644.9,309.1z M639.5,310.2c-0.1,0-0.3,0.1-0.4,0.1c-0.4,0.3-0.5,0.8-0.3,1.3c0.3,0.4,0.8,0.5,1.3,0.3
			c0.4-0.3,0.5-0.8,0.3-1.3C640.2,310.3,639.8,310.2,639.5,310.2z M497.9,311.9c-0.1,0-0.3,0.1-0.4,0.1c-0.4,0.3-0.5,0.8-0.3,1.3
			c0.3,0.4,0.8,0.5,1.3,0.3c0.4-0.3,0.5-0.8,0.3-1.3C498.6,311.9,498.2,311.8,497.9,311.9z M690.5,311.9c-0.3,0-0.8,0.3-1.4,0.8
			c-0.8,0.7-1.8,1.3-2.3,1.3c-1.2,0-2,1.4-1.4,2.5c0.8,1.3,2,1,4.2-1.2C691.3,313.5,691.5,311.7,690.5,311.9z M467.6,313.5
			c-0.1,0-0.3,0.1-0.4,0.1c-0.4,0.3-0.5,0.8-0.3,1.3c0.3,0.4,0.8,0.5,1.3,0.3c0.4-0.3,0.5-0.8,0.3-1.3
			C468.3,313.6,468,313.4,467.6,313.5z M652.6,314.3c-0.1,0-0.3,0.1-0.4,0.1c-0.4,0.3-0.5,0.8-0.3,1.3c0.3,0.4,0.8,0.5,1.3,0.3
			c0.4-0.3,0.5-0.8,0.3-1.3C653.3,314.4,652.9,314.3,652.6,314.3z M682.8,314.3c-0.1,0-0.3,0.1-0.4,0.1c-0.4,0.3-0.5,0.8-0.3,1.3
			c0.3,0.4,0.8,0.5,1.3,0.3c0.4-0.3,0.5-0.8,0.3-1.3C683.5,314.4,683.2,314.3,682.8,314.3z M635.4,315.1c-0.1,0-0.3,0.1-0.4,0.1
			c-0.4,0.3-0.5,0.8-0.3,1.3c0.3,0.4,0.8,0.5,1.3,0.3c0.4-0.3,0.5-0.8,0.3-1.3C636.1,315.2,635.7,315.1,635.4,315.1z M655.8,315.1
			c-0.1,0-0.3,0.1-0.4,0.1c-0.4,0.3-0.5,0.8-0.3,1.3c0.3,0.4,0.8,0.5,1.3,0.3c0.4-0.3,0.5-0.8,0.3-1.3
			C656.5,315.2,656.2,315.1,655.8,315.1z M696.7,315.1c-0.1,0-0.3,0.1-0.4,0.1c-0.4,0.3-0.5,0.8-0.3,1.3c0.3,0.4,0.8,0.5,1.3,0.3
			c0.4-0.3,0.5-0.8,0.3-1.3C697.4,315.2,697.1,315.1,696.7,315.1z M493.8,315.9c-0.1,0-0.3,0.1-0.4,0.1c-0.4,0.3-0.5,0.8-0.3,1.3
			c0.3,0.4,0.8,0.5,1.3,0.3c0.4-0.3,0.5-0.8,0.3-1.3C494.5,316,494.2,315.9,493.8,315.9z M466.8,316.8c-0.1,0-0.3,0.1-0.4,0.1
			c-0.4,0.3-0.5,0.8-0.3,1.3c0.3,0.4,0.8,0.5,1.3,0.3c0.4-0.3,0.5-0.8,0.3-1.3C467.5,316.9,467.2,316.7,466.8,316.8z M700,316.8
			c-0.1,0-0.3,0.1-0.4,0.1c-0.4,0.3-0.5,0.8-0.3,1.3c0.3,0.4,0.8,0.5,1.3,0.3s0.5-0.8,0.3-1.3C700.7,316.9,700.4,316.7,700,316.8z
			 M598.9,317.1c-0.4,0-0.6,0.2-0.8,0.4c-0.7,1.1,2.3,2.7,6.4,3.3c6.5,1,8,1.3,8.4,1.7c0.6,0.6,1.8,0.5,1.8-0.2
			c0-1.3-5.4-4.2-7.1-3.8c-0.9,0.2-3.3-0.1-5.3-0.8C600.7,317.3,599.6,317,598.9,317.1z M614.6,317.5c-0.9,0-1.6,0.7-1.2,1.5
			c0.3,0.4,0.8,0.8,1.2,0.8c1.1,0,1.8-1.5,0.8-2C615.2,317.5,614.9,317.4,614.6,317.5z M618.2,317.6c-0.1,0-0.3,0.1-0.4,0.1
			c-0.4,0.3-0.5,0.8-0.3,1.3c0.3,0.4,0.8,0.5,1.3,0.3c0.4-0.3,0.5-0.8,0.3-1.3C618.9,317.7,618.5,317.5,618.2,317.6z M738.5,317.6
			c-0.1,0-0.3,0.1-0.4,0.1c-0.4,0.3-0.5,0.8-0.3,1.3c0.3,0.4,0.8,0.5,1.3,0.3c0.4-0.3,0.5-0.8,0.3-1.3
			C739.2,317.7,738.8,317.5,738.5,317.6z M703.8,318.3c-0.9,0-1.6,0.7-1.2,1.5c0.3,0.4,0.8,0.8,1.2,0.8c1.1,0,1.8-1.5,0.8-2
			C704.4,318.3,704.1,318.3,703.8,318.3z M630.5,318.4c-0.1,0-0.3,0.1-0.4,0.1c-0.4,0.3-0.5,0.8-0.3,1.3c0.3,0.4,0.8,0.5,1.3,0.3
			c0.4-0.3,0.5-0.8,0.3-1.3C631.2,318.5,630.8,318.3,630.5,318.4z M641.9,319.2c-0.1,0-0.3,0.1-0.4,0.1c-0.4,0.3-0.5,0.8-0.3,1.3
			c0.3,0.4,0.8,0.5,1.3,0.3c0.4-0.3,0.5-0.8,0.3-1.3C642.6,319.3,642.3,319.2,641.9,319.2z M649,319.9c-0.9,0-1.6,0.7-1.2,1.5
			c0.3,0.4,0.8,0.8,1.2,0.8c1.1,0,1.8-1.5,0.8-2C649.6,319.9,649.3,319.9,649,319.9z M700.8,320c-0.1,0-0.3,0.1-0.4,0.1
			c-0.4,0.3-0.5,0.8-0.3,1.3c0.3,0.4,0.8,0.5,1.3,0.3c0.4-0.3,0.5-0.8,0.3-1.3C701.5,320.1,701.2,320,700.8,320z M742.6,320
			c-0.1,0-0.3,0.1-0.4,0.1c-0.4,0.3-0.5,0.8-0.3,1.3c0.3,0.4,0.8,0.5,1.3,0.3c0.4-0.3,0.5-0.8,0.3-1.3
			C743.3,320.1,742.9,320,742.6,320z M707.9,320.7c-0.3,0-0.5,0-0.8,0.2c-0.7,0.4-0.7,0.9,0.1,1.8c0.7,0.8,1.2,0.9,1.8,0.3
			C709.9,322.1,709,320.7,707.9,320.7z M467.6,320.9c-0.1,0-0.3,0.1-0.4,0.1c-0.4,0.3-0.5,0.8-0.3,1.3c0.3,0.4,0.8,0.5,1.3,0.3
			c0.4-0.3,0.5-0.8,0.3-1.3C468.3,320.9,468,320.8,467.6,320.9z M645.2,320.9c-0.1,0-0.3,0.1-0.4,0.1c-0.4,0.3-0.5,0.8-0.3,1.3
			c0.3,0.4,0.8,0.5,1.3,0.3c0.4-0.3,0.5-0.8,0.3-1.3C645.9,320.9,645.5,320.8,645.2,320.9z M639.9,321.4c-2.1,0.3-6.9,4.3-6.1,5.5
			c0.4,0.6,1.4,0.4,3.3-0.7c3.8-2.3,4.9-3.6,3.6-4.7C640.5,321.4,640.2,321.4,639.9,321.4z M617.4,321.7c-0.1,0-0.3,0.1-0.4,0.1
			c-0.4,0.3-0.5,0.8-0.3,1.3c0.3,0.4,0.8,0.5,1.3,0.3c0.4-0.3,0.5-0.8,0.3-1.3C618.1,321.8,617.7,321.6,617.4,321.7z M633.7,321.7
			c-0.1,0-0.3,0.1-0.4,0.1c-0.4,0.3-0.5,0.8-0.3,1.3c0.3,0.4,0.8,0.5,1.3,0.3c0.4-0.3,0.5-0.8,0.3-1.3
			C634.4,321.8,634.1,321.6,633.7,321.7z M628,322.3c-0.4,0-0.7,0.1-1,0.3c-0.5,0.3-0.7,0.9-0.4,1.3c0.6,1,2.6,1,3.2-0.1
			C630.2,323,629.1,322.3,628,322.3z M621.3,322.5c-0.4,0-0.8,0.1-1.1,0.3c-0.3,0.2-0.5,0.6-0.2,1c0.6,1,4.2,0.6,3.7-0.4
			c-0.3-0.5-1.1-0.9-2-0.9C621.5,322.5,621.4,322.5,621.3,322.5z M705.7,323.3c-0.1,0-0.3,0.1-0.4,0.1c-0.4,0.3-0.5,0.8-0.3,1.3
			c0.3,0.4,0.8,0.5,1.3,0.3c0.4-0.3,0.5-0.8,0.3-1.3C706.4,323.4,706.1,323.3,705.7,323.3z M625.6,324.9c-0.1,0-0.3,0.1-0.4,0.1
			c-0.4,0.3-0.5,0.8-0.3,1.3c0.3,0.4,0.8,0.5,1.3,0.3c0.4-0.3,0.5-0.8,0.3-1.3C626.3,325,625.9,324.9,625.6,324.9z M630.5,325.8
			c-0.1,0-0.3,0.1-0.4,0.1c-0.4,0.3-0.5,0.8-0.3,1.3c0.3,0.4,0.8,0.5,1.3,0.3c0.4-0.3,0.5-0.8,0.3-1.3
			C631.2,325.9,630.8,325.7,630.5,325.8z M709.8,325.8c-0.1,0-0.3,0.1-0.4,0.1c-0.4,0.3-0.5,0.8-0.3,1.3c0.3,0.4,0.8,0.5,1.3,0.3
			c0.4-0.3,0.5-0.8,0.3-1.3C710.5,325.9,710.2,325.7,709.8,325.8z M691.8,327.4c-0.1,0-0.3,0.1-0.4,0.1c-0.4,0.3-0.5,0.8-0.3,1.3
			c0.3,0.4,0.8,0.5,1.3,0.3c0.4-0.3,0.5-0.8,0.3-1.3C692.5,327.5,692.2,327.3,691.8,327.4z M706.6,328.2c-0.1,0-0.3,0.1-0.4,0.1
			c-0.4,0.3-0.5,0.8-0.3,1.3c0.3,0.4,0.8,0.5,1.3,0.3c0.4-0.3,0.5-0.8,0.3-1.3C707.3,328.3,706.9,328.2,706.6,328.2z M651.1,328.9
			c-0.2,0-0.3,0.2-0.1,0.5c0.3,0.5-0.4,1.5-1.5,2.2c-1.1,0.7-1.9,1.6-1.7,2c0.2,0.3-0.2,1.1-0.8,1.7c-0.9,0.7-1,1.3-0.4,2
			c0.5,0.6,0.6,1.2,0.2,1.5c-1.3,0.8-6.3-0.1-6.8-1.2c-0.6-1.6-2.5-1.8-2.5-0.3c0,0.7-0.9,1.7-2,2.1c-1.1,0.5-1.8,1.4-1.6,2
			c0.2,0.6,0.2,1.5-0.2,2.1c-0.4,0.7-0.9,0.6-1.7-0.5c-1.1-1.5-1.1-1.5-1.2,0.1c-0.1,0.9,0,2,0,2.6c0.1,1-4.8,5.2-6.2,5.2
			c-0.8,0-4.6,1.9-9.1,4.6c-3,1.8-3.5,4.6-1.3,7c0.8,0.9,1.1,2.1,0.8,2.9c-0.5,1.4-0.6,1.4-1.7-0.1c-0.7-0.9-1.2-1.1-1.2-0.5
			c0,0.6,0.8,2.1,1.7,3.5c1.9,2.7,4.4,13,3.8,16c-0.3,1.5,0.2,2.2,2,3.1c2.2,1.1,2.5,1.1,5.4-0.8c1.7-1.2,4.2-2.1,5.7-2.1
			c1.7,0,3.4-0.7,4.8-2c1.2-1.1,3.2-2,4.3-2c1.1,0,3.2-0.4,4.6-0.9c3.8-1.3,10.1,1.3,11.9,4.8c0.7,1.4,1.5,2.6,1.7,2.6
			c0.3,0,1.1-1.3,1.9-3c1-2.2,1.7-2.7,2.3-2.1c0.7,0.7,0.7,1.5,0,3c-1.3,2.8-1.2,3.2,0.2,2.1c0.8-0.7,1.3-0.7,1.7,0
			c0.3,0.5,0.4,1.1,0.1,1.4c-0.3,0.3,0.4,1.5,1.6,2.9c1.1,1.3,2,2.9,2,3.6c0,1.8,5,2.8,6.7,1.4c1.2-1,1.5-1,2.9,0.5
			c1.9,2.1,1.8,2.1,3.7-0.3c0.9-1.2,2.3-2,3.3-1.8c1.2,0.1,1.8-0.3,1.9-1.5c0.3-2.1,1.8-6.4,3.7-10.6c1.9-4.2,4-21.1,2.5-20.6
			c-0.8,0.2-5-2.8-5-3.6c0-0.4-0.9-1.7-2-2.9c-1.1-1.2-1.9-2.5-1.6-2.9c0.2-0.4-0.3-0.9-1.3-1.2c-2.2-0.7-4.9-6.2-4.9-10.1
			c0-2.1-0.5-3.6-1.6-4.6c-0.9-0.8-1.8-2.6-2.1-4c-0.3-1.4-0.7-2.9-1-3.3c-0.6-1-2.5,4.2-2.6,7.3c-0.1,2.5-2.8,9.4-3.7,9.4
			c-0.3,0-2.5-1.5-5-3.3c-4.2-3.1-4.5-3.5-4-5.9c0.3-1.4,0.9-2.9,1.3-3.4c1-1,0.9-3.1,0-2.5c-0.4,0.3-1,0.1-1.2-0.3
			c-0.3-0.4-1.1-0.7-1.9-0.7c-0.8,0-2.3-0.2-3.3-0.6C651.7,329,651.3,328.9,651.1,328.9z M472.5,329.9c-0.1,0-0.3,0.1-0.4,0.1
			c-0.4,0.3-0.5,0.8-0.3,1.3c0.3,0.4,0.8,0.5,1.3,0.3c0.4-0.3,0.5-0.8,0.3-1.3C473.2,329.9,472.9,329.8,472.5,329.9z M475,331.5
			c-0.1,0-0.3,0.1-0.4,0.1c-0.4,0.3-0.5,0.8-0.3,1.3c0.3,0.4,0.8,0.5,1.3,0.3c0.4-0.3,0.5-0.8,0.3-1.3
			C475.7,331.6,475.3,331.4,475,331.5z M485,332.3c-0.3,0-0.4,0.4-0.4,0.9c0,2.2-2.5,5.3-5.5,6.7c-3.3,1.6-4.6,4.3-3.9,8.1
			c0.3,1.8,0.1,3.3-0.9,4.8c-1.4,2.2-1.3,4.2,0.5,8.9c0.7,1.9,1.2,2.2,3,1.7c1.2-0.3,2.4-0.9,2.8-1.4c0.7-1.1,1.7-4.5,3.5-13.2
			c0.8-3.6,1.7-7.2,2.1-7.9c0.8-1.5,0.1-7.9-0.9-8.6C485.1,332.3,485,332.2,485,332.3z M477.4,333.9c-0.1,0-0.3,0.1-0.4,0.1
			c-0.4,0.3-0.5,0.8-0.3,1.3c0.3,0.4,0.8,0.5,1.3,0.3c0.4-0.3,0.5-0.8,0.3-1.3C478.1,334,477.8,333.9,477.4,333.9z M660.7,333.9
			c-0.1,0-0.3,0.1-0.4,0.1c-0.4,0.3-0.5,0.8-0.3,1.3c0.3,0.4,0.8,0.5,1.3,0.3c0.4-0.3,0.5-0.8,0.3-1.3
			C661.4,334,661.1,333.9,660.7,333.9z M762.2,334.8c-0.1,0-0.3,0.1-0.4,0.1c-0.4,0.3-0.5,0.8-0.3,1.3c0.3,0.4,0.8,0.6,1.2,0.3
			s0.9-0.1,1.2,0.4c0.3,0.5,0.9,0.6,1.3,0.4c0.4-0.3,0.5-0.8,0.3-1.3c-0.3-0.4-0.8-0.6-1.2-0.3c-0.4,0.2-0.9,0.1-1.2-0.4
			C762.9,334.9,762.6,334.7,762.2,334.8z M718.8,338c-0.1,0-0.3,0.1-0.4,0.1c-0.4,0.3-0.5,0.8-0.3,1.3c0.3,0.4,0.8,0.5,1.3,0.3
			c0.4-0.3,0.5-0.8,0.3-1.3C719.5,338.1,719.2,338,718.8,338z M495.4,340.5c-0.1,0-0.3,0.1-0.4,0.1c-0.4,0.3-0.5,0.8-0.3,1.3
			c0.3,0.4,0.8,0.5,1.3,0.3c0.4-0.3,0.5-0.8,0.3-1.3C496.1,340.6,495.8,340.4,495.4,340.5z M719.7,341.3c-0.1,0-0.3,0.1-0.4,0.1
			c-0.4,0.3-0.5,0.8-0.3,1.3c0.3,0.4,0.8,0.5,1.3,0.3c0.4-0.3,0.5-0.8,0.3-1.3C720.4,341.4,720,341.3,719.7,341.3z M744.2,341.3
			c-0.1,0-0.3,0.1-0.4,0.1c-0.4,0.3-0.5,0.8-0.3,1.3c0.3,0.4,0.8,0.5,1.3,0.3c0.4-0.3,0.5-0.8,0.3-1.3
			C744.9,341.4,744.6,341.3,744.2,341.3z M722.1,342.9c-0.1,0-0.3,0.1-0.4,0.1c-0.4,0.3-0.5,0.8-0.3,1.3c0.3,0.4,0.8,0.5,1.3,0.3
			c0.4-0.3,0.5-0.8,0.3-1.3C722.8,343,722.5,342.9,722.1,342.9z M87.1,343.8c-0.1,0-0.3,0.1-0.4,0.1c-0.4,0.3-0.5,0.8-0.3,1.3
			c0.3,0.4,0.8,0.5,1.3,0.3c0.4-0.3,0.5-0.8,0.3-1.3C87.8,343.9,87.5,343.7,87.1,343.8z M741.8,343.8c-0.1,0-0.3,0.1-0.4,0.1
			c-0.4,0.3-0.5,0.8-0.3,1.3c0.3,0.4,0.8,0.5,1.3,0.3c0.4-0.3,0.5-0.8,0.3-1.3C742.5,343.9,742.1,343.7,741.8,343.8z M89.6,345.4
			c-0.1,0-0.3,0.1-0.4,0.1c-0.4,0.3-0.5,0.8-0.3,1.3c0.3,0.4,0.8,0.5,1.3,0.3c0.4-0.3,0.5-0.8,0.3-1.3
			C90.3,345.5,89.9,345.4,89.6,345.4z M756.5,349.5c-0.1,0-0.3,0.1-0.4,0.1c-0.4,0.3-0.5,0.8-0.3,1.3c0.3,0.4,0.8,0.5,1.3,0.3
			c0.4-0.3,0.5-0.8,0.3-1.3C757.2,349.6,756.8,349.4,756.5,349.5z M112.5,351.1c-0.1,0-0.3,0.1-0.4,0.1c-0.4,0.3-0.5,0.8-0.3,1.3
			c0.3,0.4,0.8,0.5,1.3,0.3c0.4-0.3,0.5-0.8,0.3-1.3C113.2,351.2,112.8,351.1,112.5,351.1z M501.2,351.1c-0.1,0-0.3,0.1-0.4,0.1
			c-0.4,0.3-0.5,0.8-0.3,1.3c0.3,0.4,0.8,0.5,1.3,0.3c0.4-0.3,0.5-0.8,0.3-1.3C501.9,351.2,501.5,351.1,501.2,351.1z M715.8,351.2
			c-0.3,0-0.5,0.1-0.6,0.3c-0.6,0.6-0.3,1.2,1,2.1c2.2,1.5,2.9,1.6,3.5,0.5c0.6-1-2.1-2.8-3.7-2.9
			C716,351.2,715.9,351.1,715.8,351.2z M497.9,352c-0.1,0-0.3,0.1-0.4,0.1c-0.4,0.3-0.5,0.8-0.3,1.3c0.3,0.4,0.8,0.5,1.3,0.3
			c0.4-0.3,0.5-0.8,0.3-1.3C498.6,352,498.2,351.9,497.9,352z M754,352c-0.1,0-0.3,0.1-0.4,0.1c-0.4,0.3-0.5,0.8-0.3,1.3
			c0.3,0.4,0.8,0.5,1.3,0.3c0.4-0.3,0.5-0.8,0.3-1.3C754.7,352,754.4,351.9,754,352z M104.3,352.8c-0.1,0-0.3,0.1-0.4,0.1
			c-0.4,0.3-0.5,0.8-0.3,1.3c0.3,0.4,0.8,0.5,1.3,0.3c0.4-0.3,0.5-0.8,0.3-1.3C105,352.9,104.6,352.7,104.3,352.8z M117.4,356
			c-0.1,0-0.3,0.1-0.4,0.1c-0.4,0.3-0.5,0.8-0.3,1.3c0.3,0.4,0.8,0.5,1.3,0.3c0.4-0.3,0.5-0.8,0.3-1.3
			C118.1,356.1,117.7,356,117.4,356z M128.8,359.3c-0.1,0-0.3,0.1-0.4,0.1c-0.4,0.3-0.5,0.8-0.3,1.3c0.3,0.4,0.8,0.5,1.3,0.3
			s0.5-0.8,0.3-1.3C129.5,359.4,129.2,359.3,128.8,359.3z M136.2,361c-0.1,0-0.3,0.1-0.4,0.1c-0.4,0.3-0.5,0.8-0.3,1.3
			c0.3,0.4,0.8,0.5,1.3,0.3c0.4-0.3,0.5-0.8,0.3-1.3C136.9,361,136.6,360.9,136.2,361z M176.3,364.2c-0.1,0-0.3,0.1-0.4,0.1
			c-0.4,0.3-0.5,0.8-0.3,1.3c0.3,0.4,0.8,0.5,1.3,0.3c0.4-0.3,0.5-0.8,0.3-1.3C177,364.3,176.7,364.2,176.3,364.2z M166.5,365.9
			c-0.1,0-0.3,0.1-0.4,0.1c-0.4,0.3-0.5,0.8-0.3,1.3c0.3,0.4,0.8,0.5,1.3,0.3c0.4-0.3,0.5-0.8,0.3-1.3
			C167.2,366,166.8,365.8,166.5,365.9z M227,383.9c-0.1,0-0.3,0.1-0.4,0.1c-0.4,0.3-0.5,0.8-0.3,1.3c0.3,0.4,0.8,0.5,1.3,0.3
			c0.4-0.3,0.5-0.8,0.3-1.3C227.7,384,227.4,383.8,227,383.9z M732,387.1c0,0-0.1,0-0.1,0c-0.2,0.2,0.3,1.4,1.2,2.7
			c2.5,3.6,3,5.8,1.5,8c-1.2,1.8-1.1,2,0.4,2.4c0.9,0.2,1.6,1.1,1.6,2.1c0,2.6,1.5,2,2.3-0.9c0.4-1.5,1.1-2.6,1.7-2.5
			c0.5,0.1,0.9-0.1,0.9-0.5c0-0.4,0.3-1.4,0.6-2.2c0.4-1.1,0.2-1.3-0.9-0.9c-1,0.4-1.6,0.1-1.9-1.1c-0.3-1.3-0.7-1.4-1.5-0.7
			c-0.9,0.7-1.3,0.6-1.7-0.6C735.3,390.7,732.7,387.1,732,387.1z M659.9,388.8c-0.1,0-0.3,0.1-0.4,0.1c-0.4,0.3-0.5,0.8-0.3,1.3
			c0.3,0.4,0.8,0.5,1.3,0.3c0.4-0.3,0.5-0.8,0.3-1.3C660.6,388.9,660.3,388.7,659.9,388.8z M682,399.4c-0.1,0-0.3,0.1-0.4,0.1
			c-0.4,0.3-0.5,0.8-0.3,1.3c0.3,0.4,0.8,0.5,1.3,0.3c0.4-0.3,0.5-0.8,0.3-1.3C682.7,399.5,682.4,399.4,682,399.4z M674.7,400.2
			c-0.1,0-0.3,0.1-0.4,0.1c-0.4,0.3-0.5,0.8-0.3,1.3c0.3,0.4,0.8,0.5,1.3,0.3c0.4-0.3,0.5-0.8,0.3-1.3
			C675.4,400.3,675,400.2,674.7,400.2z M677.6,403.5c-1.3,0-1.2,0.4-0.7,1.6c0.4,1,0.9,2.4,1.1,3.2c0.5,1.5,4.1,1.6,4.3,0.1
			c0-0.4,0.4-1.4,0.7-2.2c0.9-2,0.1-2.5-3.6-2.7C678.6,403.5,678,403.4,677.6,403.5z M732.5,403.7c-1.3,0.1-3.3,2-3.3,3.4
			c0,0.5-1,1.7-2.1,2.6c-3.5,2.8-8.8,10.4-6,8.6c0.4-0.3,1.5-0.1,2.3,0.3c1.9,1.1,3.1,1.1,4.1-0.1c0.9-1.1,1-1.4,1-3.5
			c0-0.7,0.9-2.2,2.1-3.3c1.1-1.1,1.8-2.4,1.6-2.8c-0.3-0.4,0.1-1,0.8-1.3c1.6-0.6,1.7-3.2,0.1-3.8c-0.1,0-0.1-0.1-0.2-0.1
			C732.6,403.6,732.6,403.6,732.5,403.7z M236,406c-0.8,0-1.3,1.1-0.6,2.1c0.4,0.6,0.8,0.6,1.4,0c0.6-0.6,0.6-1.1,0-1.8
			C236.6,406.1,236.3,406,236,406z M722.9,420.7c-0.1,0-0.3,0.1-0.4,0.1c-0.4,0.3-0.5,0.8-0.3,1.3c0.3,0.4,0.8,0.5,1.3,0.3
			s0.5-0.8,0.3-1.3C723.6,420.8,723.3,420.6,722.9,420.7z M234.4,421.5c-0.1,0-0.3,0.1-0.4,0.1c-0.4,0.3-0.5,0.8-0.3,1.3
			c0.3,0.4,0.8,0.5,1.3,0.3c0.4-0.3,0.5-0.8,0.3-1.3C235.1,421.6,234.8,421.5,234.4,421.5z M524.1,424.1c-1-0.1-1.3,1.2-0.3,2.4
			c1.3,1.5,2,1.5,3.2,0c0.8-1,0.7-1.6-0.1-1.2c0-0.1-0.1,0-0.3,0.1c-0.3,0-0.9-0.4-1.4-0.9C524.8,424.3,524.4,424.1,524.1,424.1z
			 M234.4,425.6c-0.1,0-0.3,0.1-0.4,0.1c-0.4,0.3-0.5,0.8-0.3,1.3c0.3,0.4,0.8,0.5,1.3,0.3c0.4-0.3,0.5-0.8,0.3-1.3
			C235.1,425.7,234.8,425.5,234.4,425.6z M718,428.1c-0.1,0-0.3,0.1-0.4,0.1c-0.4,0.3-0.5,0.8-0.3,1.3c0.3,0.4,0.8,0.5,1.3,0.3
			c0.4-0.3,0.5-0.8,0.3-1.3C718.7,428.1,718.4,428,718,428.1z M234.4,429.7c-0.1,0-0.3,0.1-0.4,0.1c-0.4,0.3-0.5,0.8-0.3,1.3
			c0.3,0.4,0.8,0.5,1.3,0.3c0.4-0.3,0.5-0.8,0.3-1.3C235.1,429.8,234.8,429.6,234.4,429.7z M268,431.3c-0.1,0-0.3,0.1-0.4,0.1
			c-0.4,0.3-0.6,0.8-0.3,1.2c0.2,0.4,0.1,0.9-0.4,1.2c-0.5,0.3-0.6,0.9-0.4,1.3c0.3,0.4,0.8,0.5,1.3,0.3c0.4-0.3,0.6-0.8,0.3-1.2
			c-0.2-0.4-0.1-0.9,0.4-1.2c0.5-0.3,0.6-0.9,0.4-1.3C268.6,431.4,268.3,431.3,268,431.3z M264.3,432c-0.9,0.1-1.8,1.2-1.2,2.3
			c0.4,0.7,0.9,0.7,1.8-0.1c0.8-0.7,0.9-1.2,0.3-1.8C265,432.1,264.7,432,264.3,432z M237.2,435.3c-0.3,0-0.5,0-0.7,0.2
			c-0.8,0.5-0.6,0.9,0.5,1.8c0.9,0.6,1.5,1.3,1.4,1.5c-0.1,0.2-0.2,0.6-0.2,0.8c0,0.3,0.4,0.2,0.9-0.1c0.6-0.4,0.6-0.9-0.1-1.7
			c-0.5-0.6-0.7-1.2-0.3-1.2s0.2-0.4-0.3-0.9C238.1,435.5,237.7,435.3,237.2,435.3z M533.1,436.2c-0.1,0-0.3,0.1-0.4,0.1
			c-0.4,0.3-0.5,0.8-0.3,1.3c0.3,0.4,0.8,0.5,1.3,0.3c0.4-0.3,0.5-0.8,0.3-1.3C533.8,436.3,533.4,436.2,533.1,436.2z M246.4,436.9
			c-0.4,0.1-0.5,0.8-0.5,2.1c0,1.9-0.3,2.2-1.8,2c-1.1-0.1-1.7,0.1-1.4,0.6c0.3,0.4,1.6,0.8,2.9,0.8c1.3,0,2.6,0.3,2.8,0.7
			c0.5,0.8,2,0.8,3.5-0.2c0.6-0.4,0-1.5-1.9-3.5c-1.7-1.7-2.7-2.6-3.3-2.7C246.6,436.9,246.5,436.9,246.4,436.9z M310.1,439.5
			c-0.4,0-0.7,0.1-0.9,0.2c-0.6,0.3-0.3,0.9,0.6,1.6c1.8,1.3,3.4,1.4,4.1,0.3C314.4,440.8,311.8,439.5,310.1,439.5z M255.7,441.1
			c-0.1,0-0.3,0.1-0.4,0.1c-0.4,0.3-0.5,0.8-0.3,1.3c0.3,0.4,0.8,0.5,1.3,0.3s0.5-0.8,0.3-1.3C256.4,441.2,256,441.1,255.7,441.1z
			 M246.4,444.3c-0.9,0-1.6,0.7-1.2,1.5c0.3,0.4,0.8,0.8,1.2,0.8c1.1,0,1.8-1.5,0.8-2C247,444.3,246.7,444.3,246.4,444.3z"/>
	</g>
</g>
</svg>
